<?xml version="1.0" encoding="utf-8"?>
<!-- Generator: Adobe Illustrator 23.0.1, SVG Export Plug-In . SVG Version: 6.00 Build 0)  -->
<svg version="1.1" id="Capa_1" xmlns="http://www.w3.org/2000/svg" xmlns:xlink="http://www.w3.org/1999/xlink" x="0px" y="0px"
	 viewBox="0 0 512 512" style="enable-background:new 0 0 512 512;" xml:space="preserve">
<style type="text/css">
	.st0{fill:#F5771F;}
</style>
<g>
	<path class="st0" d="M179.4,247.3c-19.4-21.9-45.2-33.9-72.8-33.9s-53.4,12-72.8,33.9c-39.4,44.5-39.4,116.8,0,161.3l72.8,82.2
		l72.8-82.2C218.7,364.1,218.7,291.7,179.4,247.3z M166.6,397.2l-60,67.8l-60-67.8c-33.8-38.2-33.8-100.4,0-138.6
		c16.1-18.2,37.4-28.2,60-28.2s43.9,10,60,28.2C200.4,296.8,200.4,359,166.6,397.2z"/>
	<path class="st0" d="M416,209.1l55.2-62.2c29.7-33.5,29.7-87.9,0-121.3C456.5,9.1,436.9,0,416,0c-20.9,0-40.5,9.1-55.2,25.6
		c-29.7,33.5-29.7,87.9,0,121.3L416,209.1z M373.6,37C385,24.1,400,17.1,416,17.1c16,0,31,7.1,42.4,19.9c24.1,27.2,24.1,71.4,0,98.6
		L416,183.4l-42.4-47.8C349.4,108.4,349.4,64.2,373.6,37z"/>
	<path class="st0" d="M448.9,465.2c-4.6-1-9.2,1.9-10.2,6.5c-1,4.4-2.9,8.4-5.7,11.9c-2.9,3.7-2.3,9.1,1.4,12
		c1.6,1.2,3.4,1.8,5.3,1.8c2.5,0,5-1.1,6.7-3.3c4.3-5.5,7.4-11.9,8.9-18.7C456.4,470.8,453.5,466.2,448.9,465.2z"/>
	<path class="st0" d="M273,264.5c-3.7,0-7.3-0.7-10.7-2c-4.4-1.7-9.3,0.5-11,4.9c-1.7,4.4,0.5,9.3,4.9,11c5.3,2,11,3.1,16.8,3.1h3
		c4.7,0,8.5-3.8,8.5-8.5s-3.8-8.5-8.5-8.5H273z"/>
	<path class="st0" d="M252.8,210.6c1.5,0,3.1-0.4,4.5-1.3c3.8-2.4,8-3.8,12.4-4.3c4.7-0.5,8.1-4.7,7.6-9.4c-0.5-4.7-4.7-8-9.4-7.6
		c-7,0.8-13.6,3-19.6,6.8c-4,2.5-5.2,7.8-2.7,11.8C247.1,209.1,249.9,210.6,252.8,210.6z"/>
	<path class="st0" d="M154.1,494.9h-17.1c-4.7,0-8.5,3.8-8.5,8.5c0,4.7,3.8,8.5,8.5,8.5h17.1c4.7,0,8.5-3.8,8.5-8.5
		C162.7,498.7,158.9,494.9,154.1,494.9z"/>
	<path class="st0" d="M307.1,341.3c-0.7,0-1.5,0-2.2,0.1c-4.7,0.2-8.4,4.2-8.2,8.9c0.2,4.6,4,8.2,8.5,8.2c0.1,0,0.2,0,0.4,0l16.7,0
		c4.7,0,8.5-3.8,8.5-8.5c0-4.7-3.8-8.5-8.5-8.5H307.1z"/>
	<path class="st0" d="M302.9,204.8h17.1c4.7,0,8.5-3.8,8.5-8.5s-3.8-8.5-8.5-8.5h-17.1c-4.7,0-8.5,3.8-8.5,8.5
		S298.2,204.8,302.9,204.8z"/>
	<path class="st0" d="M407.7,341.3c-4.7,0-8.5,3.8-8.5,8.5c0,4.7,3.8,8.5,8.5,8.5h17.1c4.7,0,8.5-3.8,8.5-8.5c0-4.7-3.8-8.5-8.5-8.5
		H407.7z"/>
	<path class="st0" d="M438.2,273.1c0-4.7-3.8-8.5-8.5-8.5h-17.1c-4.7,0-8.5,3.8-8.5,8.5s3.8,8.5,8.5,8.5h17.1
		C434.4,281.6,438.2,277.8,438.2,273.1z"/>
	<path class="st0" d="M356.5,358.4h17.1c4.7,0,8.5-3.8,8.5-8.5c0-4.7-3.8-8.5-8.5-8.5h-17.1c-4.7,0-8.5,3.8-8.5,8.5
		C348,354.6,351.8,358.4,356.5,358.4z"/>
	<path class="st0" d="M371.1,204.8c4.7,0,8.5-3.8,8.5-8.5s-3.8-8.5-8.5-8.5h-17.1c-4.7,0-8.5,3.8-8.5,8.5s3.8,8.5,8.5,8.5H371.1z"/>
	<path class="st0" d="M310.2,264.5c-4.7,0-8.5,3.8-8.5,8.5s3.8,8.5,8.5,8.5h17.1c4.7,0,8.5-3.8,8.5-8.5s-3.8-8.5-8.5-8.5H310.2z"/>
	<path class="st0" d="M387,273.1c0-4.7-3.8-8.5-8.5-8.5h-17.1c-4.7,0-8.5,3.8-8.5,8.5s3.8,8.5,8.5,8.5h17.1
		C383.2,281.6,387,277.8,387,273.1z"/>
	<path class="st0" d="M507.1,304.1c-0.8-4.7-5.1-7.8-9.8-7.1c-4.7,0.7-7.8,5.1-7.1,9.8c0.2,1.5,0.4,3.1,0.4,4.7
		c0,2.9-0.4,5.7-1.2,8.4c-1.3,4.5,1.3,9.3,5.8,10.6c0.8,0.2,1.6,0.3,2.4,0.3c3.7,0,7.1-2.4,8.2-6.1c1.3-4.3,1.9-8.7,1.9-13.2
		C507.7,309.1,507.5,306.6,507.1,304.1z"/>
	<path class="st0" d="M358.9,494.9h-17.1c-4.7,0-8.5,3.8-8.5,8.5c0,4.7,3.8,8.5,8.5,8.5h17.1c4.7,0,8.5-3.8,8.5-8.5
		C367.5,498.7,363.7,494.9,358.9,494.9z"/>
	<path class="st0" d="M307.7,494.9h-17.1c-4.7,0-8.5,3.8-8.5,8.5c0,4.7,3.8,8.5,8.5,8.5h17.1c4.7,0,8.5-3.8,8.5-8.5
		C316.3,498.7,312.5,494.9,307.7,494.9z"/>
	<path class="st0" d="M401.6,426.7c0-4.7-3.8-8.5-8.5-8.5H376c-4.7,0-8.5,3.8-8.5,8.5s3.8,8.5,8.5,8.5h17.1
		C397.8,435.2,401.6,431.4,401.6,426.7z"/>
	<path class="st0" d="M350.4,426.7c0-4.7-3.8-8.5-8.5-8.5h-17.1c-4.7,0-8.5,3.8-8.5,8.5s3.8,8.5,8.5,8.5h17.1
		C346.6,435.2,350.4,431.4,350.4,426.7z"/>
	<path class="st0" d="M409.5,494.9h-16.5c-4.7,0-8.5,3.8-8.5,8.5c0,4.7,3.8,8.5,8.5,8.5l16.8,0l0.2-8.5v8.5c4.7,0,8.2-3.8,8.2-8.5
		C418.4,498.7,414.3,494.9,409.5,494.9z"/>
	<path class="st0" d="M439.7,449.9c1.8,0,3.7-0.6,5.3-1.8c3.7-2.9,4.3-8.3,1.4-12c-4.3-5.5-9.8-10-16-13c-4.2-2.1-9.3-0.4-11.4,3.8
		c-2.1,4.2-0.4,9.3,3.8,11.4c4,2,7.5,4.8,10.2,8.3C434.7,448.8,437.2,449.9,439.7,449.9z"/>
	<path class="st0" d="M472.3,339c-3.7,1.5-7.5,2.3-11.5,2.3h-1.8c-4.7,0-8.5,3.8-8.5,8.5c0,4.7,3.8,8.5,8.5,8.5h1.8
		c6.3,0,12.4-1.2,18.1-3.6c4.4-1.8,6.4-6.8,4.6-11.2C481.6,339.2,476.6,337.2,472.3,339z"/>
	<path class="st0" d="M239.2,254.8c4.5-1.5,6.9-6.3,5.4-10.8c-1-3-1.5-6.1-1.5-9.3c0-1.3,0.1-2.6,0.2-3.8c0.6-4.7-2.7-9-7.4-9.5
		c-4.8-0.5-9,2.7-9.5,7.4c-0.2,1.9-0.4,3.9-0.4,5.9c0,5,0.8,9.9,2.3,14.7c1.2,3.6,4.5,5.9,8.1,5.9
		C237.4,255.2,238.3,255.1,239.2,254.8z"/>
	<path class="st0" d="M205.3,494.9h-17.1c-4.7,0-8.5,3.8-8.5,8.5c0,4.7,3.8,8.5,8.5,8.5h17.1c4.7,0,8.5-3.8,8.5-8.5
		C213.9,498.7,210.1,494.9,205.3,494.9z"/>
	<path class="st0" d="M291.2,431.7c3.2,0,6.3-1.9,7.8-5c2-4.3,0.1-9.4-4.2-11.3c-4-1.8-7.6-4.6-10.5-8c-3-3.6-8.4-4.1-12-1
		c-3.6,3-4.1,8.4-1,12c4.5,5.3,10.2,9.7,16.4,12.5C288.8,431.5,290,431.7,291.2,431.7z"/>
	<path class="st0" d="M484.2,270.8c-6.1-3.5-12.7-5.6-19.8-6.2c-4.7-0.3-8.8,3.1-9.2,7.8c-0.4,4.7,3.1,8.8,7.8,9.2
		c4.5,0.3,8.7,1.7,12.5,3.9c1.3,0.8,2.8,1.2,4.3,1.2c2.9,0,5.8-1.5,7.4-4.2C489.7,278.4,488.3,273.2,484.2,270.8z"/>
	<path class="st0" d="M256.5,494.9h-17.1c-4.7,0-8.5,3.8-8.5,8.5c0,4.7,3.8,8.5,8.5,8.5h17.1c4.7,0,8.5-3.8,8.5-8.5
		C265.1,498.7,261.3,494.9,256.5,494.9z"/>
	<path class="st0" d="M277.8,382.6c0.8-4.4,2.6-8.4,5.3-12.1c2.8-3.8,2-9.1-1.8-11.9c-3.8-2.8-9.1-2-11.9,1.8
		c-4.2,5.7-7,12.1-8.3,19c-0.9,4.6,2.1,9.1,6.8,10c0.5,0.1,1.1,0.2,1.6,0.2C273.4,389.5,277,386.7,277.8,382.6z"/>
	<path class="st0" d="M418.1,128c25.9,0,46.9-21.1,46.9-46.9s-21.1-46.9-46.9-46.9c-25.9,0-46.9,21.1-46.9,46.9S392.2,128,418.1,128
		z M418.1,51.2c16.5,0,29.9,13.4,29.9,29.9s-13.4,29.9-29.9,29.9c-16.5,0-29.9-13.4-29.9-29.9S401.6,51.2,418.1,51.2z"/>
	<path class="st0" d="M106.6,264.5c-28.2,0-51.2,23-51.2,51.2s23,51.2,51.2,51.2s51.2-23,51.2-51.2S134.8,264.5,106.6,264.5z
		 M106.6,349.9c-18.8,0-34.1-15.3-34.1-34.1c0-18.8,15.3-34.1,34.1-34.1s34.1,15.3,34.1,34.1C140.7,334.6,125.4,349.9,106.6,349.9z"
		/>
</g>
</svg>
