<?xml version="1.0" encoding="utf-8"?>
<!-- Generator: Adobe Illustrator 23.0.1, SVG Export Plug-In . SVG Version: 6.00 Build 0)  -->
<svg version="1.1" id="Capa_1" xmlns="http://www.w3.org/2000/svg" xmlns:xlink="http://www.w3.org/1999/xlink" x="0px" y="0px"
	 viewBox="0 0 486 486" style="enable-background:new 0 0 486 486;" xml:space="preserve">
<style type="text/css">
	.st0{fill:#FFFFFF;}
</style>
<g>
	<g id="XMLID_1_">
		<g>
			<path class="st0" d="M482,138.3c3.8,2.2,5.2,7.1,3,10.9l-32,55.4l-13.8-8l28-48.4l-6.9-4l-92.7,160.5v138.4
				c0,22-17.9,39.9-40,39.9H40c-22.1,0-40-17.9-40-39.9V43.6c0-22,17.9-39.9,40-39.9h223.7c0.2,0,0.3,0.1,0.5,0.1
				c0.7,0,1.4,0.2,2,0.4c0.3,0.1,0.5,0.2,0.8,0.3c0.9,0.4,1.7,0.9,2.3,1.6l95.9,95.9c0.7,0.7,1.2,1.5,1.6,2.3
				c0.1,0.2,0.2,0.5,0.3,0.7c0.2,0.7,0.4,1.4,0.4,2.1c0,0.2,0.1,0.3,0.1,0.5v101.3l63.1-109.3c6.6-11.5,21.3-15.4,32.8-8.8
				s15.4,21.3,8.8,32.8l-4,6.9L482,138.3z M458.3,115.4c2.2-3.8,0.9-8.7-2.9-10.9c-3.8-2.2-8.7-0.9-10.9,2.9l-20,34.6l13.8,8
				L458.3,115.4z M323.4,349l106.9-185.2l-13.8-8L309.6,341.1l-0.7,11l5.3,3.1L323.4,349z M294.8,334.7l57.4-99.4h-0.6V115.5h-71.9
				c-13.2,0-24-10.7-24-24V19.6H40c-13.2,0-24,10.7-24,24v399.5c0,13.2,10.7,24,24,24h287.6c13.2,0,24-10.7,24-24V332.4l-15.2,26.3
				c-0.6,1.1-1.5,2-2.5,2.7l-14.9,9.8c-1.3,0.9-2.8,1.4-4.4,1.4c-1.4,0-2.8-0.4-4-1.1l-16,27.7l-13.8-8l16-27.7
				c-2.6-1.5-4.2-4.4-4-7.4l1.1-17.8C293.8,337,294.2,335.8,294.8,334.7z M340.2,99.5l-68.6-68.6v60.6c0,4.4,3.6,8,8,8H340.2z"/>
		</g>
	</g>
	<path class="st0" d="M71.9,227.3h32v16h-32V227.3z"/>
	<path class="st0" d="M119.8,227.3h16v16h-16V227.3z"/>
	<path class="st0" d="M151.8,227.3h143.8v16H151.8V227.3z"/>
	<path class="st0" d="M71.9,275.3h95.9v16H71.9V275.3z"/>
	<path class="st0" d="M183.8,275.3h32v16h-32V275.3z"/>
	<path class="st0" d="M231.7,275.3h63.9v16h-63.9L231.7,275.3L231.7,275.3z"/>
	<path class="st0" d="M71.9,323.2h63.9v16H71.9V323.2z"/>
	<path class="st0" d="M151.8,323.2h63.9v16h-63.9L151.8,323.2L151.8,323.2z"/>
	<path class="st0" d="M231.7,323.2h47.9v16h-47.9L231.7,323.2L231.7,323.2z"/>
	<path class="st0" d="M273.2,399.8c-5.4-0.1-10.8,1.5-15.3,4.5c-2,1.5-4.5,2.3-7.1,2.2c-2.5,0.1-5-0.7-7.1-2.2c-9.3-6-21.3-6-30.6,0
		c-4.2,2.9-9.9,2.9-14.1,0c-4.5-3-9.9-4.6-15.3-4.5v16c2.5-0.1,5,0.7,7.1,2.2c9.3,6,21.3,6,30.6,0c4.2-3,9.9-3,14.1,0
		c9.3,6,21.3,6,30.6,0c4.3-3,9.9-3,14.2,0c4.5,3,9.9,4.6,15.3,4.5v-16c-2.5,0.1-5-0.7-7.1-2.2C284,401.2,278.7,399.7,273.2,399.8z"
		/>
	<path class="st0" d="M183.8,163.4c-4.4,0-8-3.6-8-8h-16c0,10.1,6.4,19.1,16,22.5v9.5h16v-9.5c9.5-3.4,15.9-12.4,16-22.5
		c0-12.9-11.8-18.8-20.4-23.1c-6.8-3.4-11.6-6-11.6-8.8c0-4.4,3.6-8,8-8s8,3.6,8,8h16c0-10.1-6.4-19.1-16-22.5v-9.5h-16v9.5
		c-9.5,3.4-15.9,12.4-16,22.5c0,12.9,11.8,18.8,20.4,23.1c6.8,3.4,11.6,6,11.6,8.8C191.7,159.9,188.2,163.4,183.8,163.4z"/>
	<path class="st0" d="M183.8,211.4c39.7,0,71.9-32.2,71.9-71.9s-32.2-71.9-71.9-71.9s-71.9,32.2-71.9,71.9
		C111.9,179.2,144.1,211.3,183.8,211.4z M183.8,83.5c30.9,0,55.9,25,55.9,55.9s-25,55.9-55.9,55.9s-55.9-25-55.9-55.9
		C127.9,108.6,152.9,83.6,183.8,83.5z"/>
</g>
</svg>
