<?xml version="1.0" encoding="utf-8"?>
<!-- Generator: Adobe Illustrator 23.0.1, SVG Export Plug-In . SVG Version: 6.00 Build 0)  -->
<svg version="1.1" id="Capa_1" xmlns="http://www.w3.org/2000/svg" xmlns:xlink="http://www.w3.org/1999/xlink" x="0px" y="0px"
	 viewBox="0 0 266 285" style="enable-background:new 0 0 266 285;" xml:space="preserve">
<style type="text/css">
	.st0{fill:#FFFFFF;}
</style>
<g>
	<g id="XMLID_1_">
		<g>
			<path class="st0" d="M266,76v204.2c0,2.6-2.1,4.8-4.8,4.8H4.8c-2.6,0-4.8-2.1-4.8-4.8V76V23.8C0,21.1,2.1,19,4.8,19H38V4.8
				C38,2.1,40.1,0,42.8,0H76c2.6,0,4.8,2.1,4.8,4.8V19h104.5V4.8c0-2.6,2.1-4.8,4.8-4.8h33.2c2.6,0,4.8,2.1,4.8,4.8V19h33.2
				c2.6,0,4.8,2.1,4.8,4.8V76H266z M256.5,275.5V80.8H9.5v194.8h247V275.5z M256.5,71.2V28.5H228v14.2c0,2.6-2.1,4.8-4.8,4.8H190
				c-2.6,0-4.8-2.1-4.8-4.8V28.5H80.8v14.2c0,2.6-2.1,4.8-4.8,4.8H42.8c-2.6,0-4.8-2.1-4.8-4.8V28.5H9.5v42.8h247V71.2z M218.5,38
				V23.8V9.5h-23.8v14.2V38H218.5z M71.2,38V23.8V9.5H47.5v14.2V38H71.2z"/>
			<path class="st0" d="M223.2,204.2V247h-42.8H171h-33.2h-9.5H95h-9.5H42.8v-42.8v-9.5v-33.2V152v-42.8h42.8H95h33.2h9.5H171h9.5
				h42.8V152v9.5v33.2v9.5H223.2z M213.8,237.5v-33.2h-33.2v33.2H213.8z M213.8,194.8v-33.2h-33.2v33.2H213.8z M213.8,152v-33.2
				h-33.2V152H213.8z M171,237.5v-33.2h-33.2v33.2H171z M171,194.8v-33.2h-33.2v33.2H171z M171,152v-33.2h-33.2V152H171z
				 M128.2,237.5v-33.2H95v33.2H128.2z M128.2,194.8v-33.2H95v33.2H128.2z M128.2,152v-33.2H95V152H128.2z M85.5,237.5v-33.2H52.2
				v33.2H85.5z M85.5,194.8v-33.2H52.2v33.2H85.5z M85.5,152v-33.2H52.2V152H85.5z"/>
		</g>
	</g>
</g>
</svg>
