<?xml version="1.0" encoding="utf-8"?>
<!-- Generator: Adobe Illustrator 23.0.1, SVG Export Plug-In . SVG Version: 6.00 Build 0)  -->
<svg version="1.1" id="Capa_1" xmlns="http://www.w3.org/2000/svg" xmlns:xlink="http://www.w3.org/1999/xlink" x="0px" y="0px"
	 viewBox="0 0 480 480" style="enable-background:new 0 0 480 480;" xml:space="preserve">
<style type="text/css">
	.st0{fill:#FFFFFF;}
</style>
<g>
	<g>
		<g id="XMLID_1_">
			<g>
				<path class="st0" d="M464,241c-0.3,10.7-6,20.9-16,26.6V352h16V241z M464,239.1V64H328v16h112c4.4,0,8,3.6,8,8v124.4
					c4.9,2.8,9,6.9,11.8,11.8C462.5,228.9,463.9,234,464,239.1z M480,56v304c0,4.4-3.6,8-8,8h-24v24c0,4.4-3.6,8-8,8h-28.5
					c-5.7,9.9-16.2,16-27.5,16H264c-0.4,0-0.9,0-1.3-0.1L176,401.4V424c0,4.4-3.6,8-8,8H8c-4.4,0-8-3.6-8-8V216c0-4.4,3.6-8,8-8
					h214.1l57.9-28.9V88c0-4.4,3.6-8,8-8h24V56c0-4.4,3.6-8,8-8h152C476.4,48,480,51.6,480,56z M448,240c0-8.8-7.2-16-16-16H288
					c-4.4,0-8-3.6-8-8v-19.1l-52.4,26.2c-1.1,0.6-2.3,0.8-3.6,0.8h-48v161.2l88.7,14.8H384c8.8,0,16-7.2,16-16s-7.2-16-16-16h-16
					c-4.4,0-8-3.6-8-8s3.6-8,8-8h32c8.8,0,16-7.2,16-16s-7.2-16-16-16h-16c-4.4,0-8-3.6-8-8s3.6-8,8-8h32c8.8,0,16-7.2,16-16
					s-7.2-16-16-16h-16c-4.4,0-8-3.6-8-8s3.6-8,8-8h32C440.8,256,448,248.8,448,240z M432,384v-48v-20.4c-1.7,1-3.5,1.9-5.4,2.6
					c1.5,2.2,2.7,4.7,3.6,7.2c1.2,3.5,1.8,7.1,1.8,10.6c0,13.2-8.2,25.6-21.4,30.2c3.5,5.3,5.4,11.5,5.4,17.8L432,384L432,384z
					 M432,208V96H296v112h16v-72c0-4.4,3.6-8,8-8s8-3.6,8-8s3.6-8,8-8h56c4.4,0,8,3.6,8,8s3.6,8,8,8s8,3.6,8,8v72H432z M400,208
					v-65.4c-6.8-2.4-12.2-7.8-14.6-14.6h-42.7c-2.4,6.8-7.8,12.2-14.6,14.6V208H400z M160,416V224H16v192H160z"/>
			</g>
		</g>
	</g>
	<g>
		<g>
			<path class="st0" d="M112,336c-17.7,0-32,14.3-32,32s14.3,32,32,32s32-14.3,32-32S129.7,336,112,336z M112,384
				c-8.8,0-16-7.2-16-16s7.2-16,16-16s16,7.2,16,16S120.8,384,112,384z"/>
		</g>
	</g>
</g>
</svg>
