<?xml version="1.0" encoding="utf-8"?>
<!-- Generator: Adobe Illustrator 23.0.1, SVG Export Plug-In . SVG Version: 6.00 Build 0)  -->
<svg version="1.1" id="Capa_1" xmlns="http://www.w3.org/2000/svg" xmlns:xlink="http://www.w3.org/1999/xlink" x="0px" y="0px"
	 viewBox="0 0 512 512" style="enable-background:new 0 0 512 512;" xml:space="preserve">
<style type="text/css">
	.st0{fill:#FFFFFF;}
</style>
<g>
	<g>
		<path class="st0" d="M506.4,347.7L490.7,333c-3-2.8-7.6-2.6-10.4,0.3c-2.8,3-2.6,7.6,0.3,10.4l15.7,14.7c1.1,1,1.3,2.7,0.5,3.9
			l-3.6,6c-0.7,1.1-1.7,1.4-2.3,1.5c-0.6,0.1-1.6,0.1-2.6-0.8l-10.7-10c-2.1-2-5.3-2.5-7.9-1.4c-2.7,1.2-4.4,3.8-4.4,6.7v99.8H430
			v-71.7c0-8.8-7.2-16-16-16h-33.6c-8.8,0-16,7.2-16,16v71.7h-40.7v-99.8c0-2.9-1.7-5.6-4.4-6.7c-2.7-1.2-5.8-0.6-7.9,1.4l-10.7,10
			c-1,0.9-2,0.9-2.6,0.8s-1.6-0.4-2.3-1.5l-3.6-6c-0.8-1.3-0.5-2.9,0.5-3.9l28.7-26.9c1.5-1.4,2.3-3.3,2.3-5.3v-42.9
			c0-0.6,0.3-1,0.5-1.2s0.6-0.5,1.2-0.5h11.9c0.9,0,1.7,0.8,1.7,1.7v14.8c0,2.9,1.7,5.6,4.4,6.7c2.7,1.2,5.8,0.6,7.9-1.4l4.4-4.1
			c5.5,4.3,11,7.4,16.4,9.1c2.6,10,11.7,17.4,22.5,17.4c12.8,0,23.2-10.4,23.2-23.2c0-12.8-10.4-23.2-23.2-23.2
			c-9.5,0-17.6,5.7-21.2,13.8c-2.2-1-4.5-2.4-6.8-4l25.7-24.1c1.3-1.2,3.3-1.2,4.6,0l50.1,47c3,2.8,7.6,2.6,10.4-0.3
			c2.8-3,2.6-7.6-0.3-10.4l-40.2-37.8c1.1-18.6-2.4-40.5-10-62.1c-2.9-8.3-6.3-16.2-10.1-23.6c9.2-38.4-1.1-80.6-31-110.5
			c-22.2-22.2-51.6-34.3-82.9-34.3S222.1,45.3,200,67.4s-34.4,51.6-34.4,82.9c0,17.4,3.8,34.2,10.9,49.5l-93.7,93.7
			c-2.9,2.9-2.9,7.5,0,10.4s7.5,2.9,10.4,0l90.7-90.7c2.3,3.5,4.7,7,7.4,10.3c0.1,0.1,0.1,0.2,0.2,0.3c0.6,0.7,1.1,1.4,1.7,2.1
			c0.1,0.2,0.3,0.3,0.4,0.5c0.5,0.6,1.1,1.2,1.6,1.8c0.2,0.2,0.3,0.4,0.5,0.6c0.5,0.6,1.1,1.2,1.6,1.7c0.2,0.2,0.4,0.4,0.5,0.6
			c0.7,0.8,1.4,1.5,2.2,2.2c0.7,0.7,1.5,1.5,2.2,2.2c0.2,0.2,0.4,0.4,0.6,0.6c0.6,0.5,1.1,1.1,1.7,1.6c0.2,0.2,0.4,0.4,0.6,0.5
			c0.6,0.5,1.2,1.1,1.8,1.6c0.2,0.1,0.3,0.3,0.5,0.4c0.7,0.6,1.3,1.1,2,1.7c0.1,0.1,0.2,0.2,0.3,0.2c3.3,2.6,6.7,5.1,10.3,7.4
			l-81,80.7l-26.5,4.6c-5.7,1-10.1,5.4-11.1,11.1l-4.1,23.7l-23.7,4.1c-5.7,1-10.1,5.4-11.1,11.1L58,411.2l-6.4,6.4l-36.9,0.7
			l0.7-36.9l45-45c2.9-2.9,2.9-7.5,0-10.4s-7.5-2.9-10.4,0L4.7,371.4c-2.5,2.5-3.9,5.8-4,9.4L0,419.1c-0.1,3.7,1.4,7.3,4,9.9
			c2.5,2.5,6,4,9.6,4c0.1,0,0.2,0,0.3,0l38.4-0.8c3.5-0.1,6.9-1.5,9.4-4l7-7c2-2,3.3-4.5,3.8-7.3l4.5-26.1l23.7-4.1
			c5.7-1,10.1-5.4,11.1-11.1l4.1-23.7l26.1-4.5c2.8-0.5,5.3-1.8,7.3-3.8l84.1-84.1c15.3,7.1,32.1,10.9,49.5,10.9
			c14.6,0,28.8-2.7,42-7.7c1.3,2.4,2.6,4.8,4,7.1h-3.2c-4.4,0-8.5,1.7-11.6,4.8c-3.1,3.1-4.8,7.2-4.8,11.6v39.7l-26.4,24.8
			c-6.1,5.7-7.4,15-3.1,22.2l3.6,6c2.8,4.6,7.5,7.7,12.8,8.5c4.6,0.6,9.3-0.5,13-3.3v85.1c0,3.4,1.3,6.6,3.7,9
			c2.4,2.4,5.6,3.7,9,3.7l0,0h100.9c0.1,0,44.6,0,0.4,0h44.3c7,0,12.7-5.7,12.7-12.7v-85.1c3.7,2.7,8.3,3.9,13,3.3
			c5.4-0.7,10-3.8,12.8-8.5l3.6-6C513.8,362.8,512.5,353.4,506.4,347.7z M392.1,308.7c4.1-1.5,7.8-3.8,11-7c0,0.3,0.1,0.7,0.1,1
			c0,4.7-3.8,8.6-8.6,8.6c-1.9,0-3.7-0.7-5.2-1.8C390.3,309.2,391.2,309,392.1,308.7z M392.9,206.4c5.8,16.3,8.6,31.6,9.2,44.8
			c-6.5-3-14.5-2-20,3.2l-26.5,24.9c-6.4-7-12.4-15.7-17.6-25.5c10-5.4,19.3-12.3,27.6-20.5c10.5-10.5,18.5-22.4,24.2-35.2
			C390.9,200.8,391.9,203.6,392.9,206.4z M327.4,229.5c-10.6-30.1-11.5-56.8-6.3-73c9.6-0.7,19-4.7,26.4-12
			c16.2-16.2,16.2-42.6,0-58.9c-16.2-16.2-42.6-16.2-58.9,0c-16.2,16.2-16.2,42.6,0,58.9c5.1,5.1,11.2,8.6,17.6,10.5
			c-1.1,4-1.8,8.3-2.3,12.9c-2,19.5,1.4,43.2,9.6,66.6c1.5,4.2,3.1,8.3,4.8,12.3c-11.3,4.2-23.3,6.3-35.7,6.3
			c-16.8,0-32.9-4-47.3-11.5c-0.1,0-0.1-0.1-0.2-0.1c-5.7-3-11.1-6.5-16.2-10.5c-0.1-0.1-0.1-0.1-0.2-0.2c-1.9-1.5-3.7-3.1-5.5-4.8
			c-0.2-0.2-0.4-0.3-0.6-0.5c-0.9-0.8-1.7-1.6-2.5-2.4c-0.8-0.8-1.6-1.7-2.4-2.5c-0.2-0.2-0.3-0.4-0.5-0.5c-1.7-1.8-3.2-3.6-4.8-5.5
			c-0.1-0.1-0.1-0.1-0.2-0.2c-4-5.1-7.5-10.5-10.5-16.2c0-0.1-0.1-0.1-0.1-0.2c-7.5-14.4-11.5-30.6-11.5-47.3
			c0-27.4,10.7-53.2,30.1-72.6S255.3,48,282.8,48s53.2,10.7,72.6,30.1c40,40,40,105.1,0,145.1c-7.1,7.1-15,13-23.5,17.6
			C330.1,237,328.7,233.3,327.4,229.5z M311.8,141.2c-4.7-1.1-9.2-3.5-12.9-7.2c-10.5-10.5-10.5-27.6,0-38.1s27.6-10.5,38.1,0
			c8.1,8.1,10,20.1,5.5,30c-5-0.8-9.9-0.4-14.5,1.2C321.4,129.6,315.9,134.3,311.8,141.2z M415.4,464.2h-36.3v-71.7
			c0-0.7,0.6-1.3,1.3-1.3H414c0.7,0,1.3,0.6,1.3,1.3v71.7H415.4z"/>
	</g>
</g>
</svg>
