<?xml version="1.0" encoding="utf-8"?>
<!-- Generator: Adobe Illustrator 23.0.1, SVG Export Plug-In . SVG Version: 6.00 Build 0)  -->
<svg version="1.1" id="Capa_1" xmlns="http://www.w3.org/2000/svg" xmlns:xlink="http://www.w3.org/1999/xlink" x="0px" y="0px"
	 viewBox="0 0 512 512" style="enable-background:new 0 0 512 512;" xml:space="preserve">
<style type="text/css">
	.st0{fill:#FFFFFF;}
</style>
<g>
	<g id="XMLID_1_">
		<g>
			<path class="st0" d="M512,7.5v497c0,4.1-3.4,7.5-7.5,7.5H7.5c-4.1,0-7.5-3.4-7.5-7.5V7.5C0,3.4,3.4,0,7.5,0h497
				C508.6,0,512,3.4,512,7.5z M497,497V15H15v482H497z"/>
		</g>
	</g>
</g>
<g>
	<g>
		<path class="st0" d="M474.5,30h-437c-4.1,0-7.5,3.4-7.5,7.5v45c0,4.1,3.4,7.5,7.5,7.5s7.5-3.4,7.5-7.5V45h422v422H45V112.5
			c0-4.1-3.4-7.5-7.5-7.5s-7.5,3.4-7.5,7.5v362c0,4.1,3.4,7.5,7.5,7.5h437c4.1,0,7.5-3.4,7.5-7.5v-437C482,33.4,478.6,30,474.5,30z"
			/>
	</g>
</g>
<g>
	<g>
		<path class="st0" d="M316,113c-42.5,0-77,34.5-77,77v132c0,42.5,34.5,77,77,77s77-34.5,77-77V190C393,147.5,358.5,113,316,113z
			 M378,322c0,34.2-27.8,62-62,62s-62-27.8-62-62V190c0-34.2,27.8-62,62-62s62,27.8,62,62V322z"/>
	</g>
</g>
<g>
	<g>
		<path class="st0" d="M316,153c-20.4,0-37,16.6-37,37v132c0,20.4,16.6,37,37,37s37-16.6,37-37V190C353,169.6,336.4,153,316,153z
			 M338,322c0,12.1-9.9,22-22,22s-22-9.9-22-22V190c0-12.1,9.9-22,22-22s22,9.9,22,22V322z"/>
	</g>
</g>
<g>
	<g>
		<path class="st0" d="M205.3,114.4c-2.8-1-5.8-1.4-8.8-1.4c-8.6,0-16.8,4.1-21.9,10.9l-50,66c-4.4,5.9-6.3,13.1-5.3,20.4
			c1,7.3,4.8,13.7,10.6,18.2c4.8,3.7,10.6,5.6,16.6,5.6c8.7,0,16.7-4,21.9-10.9l0.6-0.8v149.2c0,15.2,12.3,27.5,27.5,27.5
			s27.5-12.3,27.5-27.5v-231C224,128.7,216.5,118.2,205.3,114.4z M209,371.5c0,6.9-5.6,12.5-12.5,12.5s-12.5-5.6-12.5-12.5V200
			c0-3.2-2.1-6.1-5.1-7.1c-0.8-0.3-1.6-0.4-2.4-0.4c-2.3,0-4.5,1.1-6,3l-14,18.5c-2.4,3.1-6,5-10,5c-2.7,0-5.3-0.9-7.5-2.5
			c-2.7-2-4.4-4.9-4.8-8.3c-0.5-3.3,0.4-6.6,2.4-9.3l50-66c2.3-3.1,6.1-5,10-5c1.4,0,2.7,0.2,4,0.7c5.1,1.7,8.5,6.5,8.5,11.8
			L209,371.5L209,371.5z"/>
	</g>
</g>
</svg>
