<?xml version="1.0" encoding="utf-8"?>
<!-- Generator: Adobe Illustrator 23.0.1, SVG Export Plug-In . SVG Version: 6.00 Build 0)  -->
<svg version="1.1" id="Capa_1" xmlns="http://www.w3.org/2000/svg" xmlns:xlink="http://www.w3.org/1999/xlink" x="0px" y="0px"
	 viewBox="0 0 470 470" style="enable-background:new 0 0 470 470;" xml:space="preserve">
<style type="text/css">
	.st0{fill:#F5771F;}
</style>
<g>
	<path class="st0" d="M102.7,215.1h264.7c4.1,0,7.5-3.4,7.5-7.5v-30c0-4.1-3.4-7.5-7.5-7.5h-15.8l-56.7-94.6V37.5
		c0-4.1-3.4-7.5-7.5-7.5h-2.5V15h2.5c4.1,0,7.5-3.4,7.5-7.5S291.5,0,287.3,0H182.7c-4.1,0-7.5,3.4-7.5,7.5s3.4,7.5,7.5,7.5h2.5v15
		h-2.5c-4.1,0-7.5,3.4-7.5,7.5v37.9l-56.7,94.6h-15.8c-4.1,0-7.5,3.4-7.5,7.5v30C95.2,211.7,98.5,215.1,102.7,215.1z M200.2,15h69.7
		v15h-69.7V15z M189.1,81.4c0.7-1.2,1.1-2.5,1.1-3.9V45h89.7v32.5c0,1.4,0.4,2.7,1.1,3.9l53.2,88.7H135.9L189.1,81.4z M110.2,185.1
		h237.2c0,0,12.5,0,12.5,0v15H110.2V185.1z"/>
	<path class="st0" d="M433.5,299.2h-78.7v-61.7c0-4.1-3.4-7.5-7.5-7.5s-7.5,3.4-7.5,7.5v61.7h-15v-61.7c0-4.1-3.4-7.5-7.5-7.5
		s-7.5,3.4-7.5,7.5v31.7H160.2v-31.7c0-4.1-3.4-7.5-7.5-7.5s-7.5,3.4-7.5,7.5v61.7h-15v-61.7c0-4.1-3.4-7.5-7.5-7.5
		s-7.5,3.4-7.5,7.5v61.7H36.5c-4.1,0-7.5,3.4-7.5,7.5v30c0,4.1,3.4,7.5,7.5,7.5h397c4.1,0,7.5-3.4,7.5-7.5v-30
		C441,302.6,437.6,299.2,433.5,299.2z M160.2,284.2h149.7v15H160.2V284.2z M426,329.2H44v-15h382L426,329.2L426,329.2z"/>
	<path class="st0" d="M347.3,359.2c-4.1,0-7.5,3.4-7.5,7.5V455h-15v-88.3c0-4.1-3.4-7.5-7.5-7.5s-7.5,3.4-7.5,7.5V455H160.2v-88.3
		c0-4.1-3.4-7.5-7.5-7.5s-7.5,3.4-7.5,7.5V455h-15v-88.3c0-4.1-3.4-7.5-7.5-7.5s-7.5,3.4-7.5,7.5v95.8c0,4.1,3.4,7.5,7.5,7.5h224.7
		c4.1,0,7.5-3.4,7.5-7.5v-95.8C354.8,362.6,351.5,359.2,347.3,359.2z"/>
</g>
</svg>
