<?xml version="1.0" encoding="utf-8"?>
<!-- Generator: Adobe Illustrator 23.0.1, SVG Export Plug-In . SVG Version: 6.00 Build 0)  -->
<svg version="1.1" id="Capa_1" xmlns="http://www.w3.org/2000/svg" xmlns:xlink="http://www.w3.org/1999/xlink" x="0px" y="0px"
	 viewBox="0 0 512 512" style="enable-background:new 0 0 512 512;" xml:space="preserve">
<style type="text/css">
	.st0{fill:#F5771F;}
</style>
<g>
	<path class="st0" d="M510.5,211.5c-0.2-4.3-2.6-12.3-17-17.5L89.2,46.9c-19.9-7.3-42.1,3.1-49.3,23L4.3,167.7
		c-7.3,19.9,3.1,42.1,23,49.3l119,43.3l-0.2,1.2c-2.1,12.8,1.3,26,9.3,36.2l0.5,0.7l-25.4,69.7c-1.4,3.8-5,6.3-9,6.3h-75v-25.5
		c0-12.4-10.1-22.5-22.5-22.5H8c-3.6,0-6.5,2.9-6.5,6.5v128c0,3.6,2.9,6.5,6.5,6.5h16c12.4,0,22.5-10.1,22.5-22.5v-25.5h75
		c22.9,0,43.5-14.4,51.3-35.9l24.9-68.4l0.9-0.1c14-2,26.1-10.1,33.3-22.3l0.6-1.1l1.2,0.4l137.7,50.1c4.2,1.5,8.7,2.3,13.1,2.3
		c13.3,0,25.9-7,32.9-18.4l0.6-1l17,6.2c3.6,1.3,7.6,1.1,11.1-0.5s6.2-4.5,7.5-8.2l21.9-60.2c2.4-6.5-0.2-13.8-6.2-17.4l-2.4-1.5
		l28.2-13.2C508.9,224,510.7,215.8,510.5,211.5z M33.5,444.9c0,5.2-4.3,9.5-9.5,9.5h-9.5v-115H24c5.2,0,9.5,4.3,9.5,9.5V444.9z
		 M160.6,379c-6,16.4-21.7,27.4-39.1,27.4h-75v-19h75c9.5,0,18-6,21.2-14.8l23.6-64.8l1.6,0.9c2.6,1.6,5.4,2.9,8.2,3.9
		c2,0.7,4.1,1.3,6.2,1.8l1.7,0.4L160.6,379z M219,288.8c-6.1,8.4-15.5,13.3-25.9,13.7H193c-0.2,0-0.3,0-0.5,0s-0.3,0-0.5,0
		c-4,0-7.9-0.7-11.6-2c-4.6-1.7-8.6-4.2-12-7.5l-0.1-0.1c-0.2-0.3-0.5-0.6-0.8-0.8l-0.1-0.1c-6.3-6.7-9.6-15.8-8.9-25l0.1-2
		l61.5,22.4L219,288.8z M440.9,319.5L423,313l21.5-59l5.4-2.5l13.9,5.1L440.9,319.5z M497.3,212.7c-0.6,1.4-3,3.7-7.7,5.9l-65,30.3
		c-14.4,6.7-39.2,7.8-54.1,2.4L139,167.2c-3.4-1.2-7.1,0.5-8.3,3.9s0.5,7.1,3.9,8.3L366,263.5c7.7,2.8,17.2,4.3,27.6,4.3
		c11.2,0,22.2-1.8,31.2-4.9l3-1.1l-19.3,52.9c-2.3,6.4-7,11.5-13.2,14.4c-3.4,1.6-7.1,2.4-10.8,2.4c-2.9,0-5.9-0.5-8.7-1.5
		L31.7,204.8c-6.4-2.3-11.5-7-14.4-13.2s-3.2-13.1-0.9-19.5l14.7-40.4l1.6,2.5c4.6,7,11.2,12.3,19.1,15.2l7.5,2.7
		c1.6,0.6,3.4,0.5,5-0.2s2.8-2,3.4-3.7c0.6-1.6,0.5-3.4-0.2-5s-2-2.8-3.7-3.4l-7.5-2.7c-13.2-4.8-20-19.5-15.2-32.7L52,74.3
		c2.3-6.4,7-11.5,13.2-14.4s13.1-3.2,19.5-0.9L489,206c5,1.8,7.5,3.9,8.2,5.2l0.3,0.6L497.3,212.7z"/>
	<path class="st0" d="M108.8,156.8l-15-5.5c-0.7-0.2-1.4-0.4-2.1-0.4c-0.9,0-1.7,0.2-2.5,0.6c-1.5,0.7-2.6,1.9-3.1,3.4
		c-1.1,3.1,0.5,6.6,3.6,7.7l15,5.5c0.7,0.2,1.4,0.4,2.1,0.4c2.5,0,4.8-1.6,5.6-4c0.5-1.5,0.5-3.1-0.2-4.6S110.3,157.3,108.8,156.8z"
		/>
</g>
</svg>
