<?xml version="1.0" encoding="utf-8"?>
<!-- Generator: Adobe Illustrator 23.0.1, SVG Export Plug-In . SVG Version: 6.00 Build 0)  -->
<svg version="1.1" id="Layer_1" xmlns="http://www.w3.org/2000/svg" xmlns:xlink="http://www.w3.org/1999/xlink" x="0px" y="0px"
	 viewBox="0 0 512 512" style="enable-background:new 0 0 512 512;" xml:space="preserve">
<style type="text/css">
	.st0{fill:#F5771F;}
</style>
<g>
	<path class="st0" d="M493.4,503.5V8.5c0-4.3-2.8-7-7-7H25.6c-4.3,0-7,2.8-7,7v494.9c0,4.3,2.8,7,7,7h460.8
		C490.7,510.5,493.4,507.7,493.4,503.5z M223.4,496.4H83.8V118h139.5L223.4,496.4L223.4,496.4z M377,496.4H237.4V118H377V496.4z
		 M479.4,496.4H391V110.9c0-4.3-2.8-7-7-7H76.8c-4.3,0-7,2.8-7,7v385.5H32.6V15.6h446.7L479.4,496.4L479.4,496.4z"/>
	<path class="st0" d="M273.1,35.6h-85.3c-13.7,0-24.1,10.4-24.1,24.1s10.4,24.1,24.1,24.1h85.3c13.7,0,24.1-10.4,24.1-24.1
		S286.8,35.6,273.1,35.6z M273.1,69.8h-85.3c-5.9,0-10-4.1-10-10s4.1-10,10-10h85.3c5.9,0,10,4.1,10,10S279,69.8,273.1,69.8z"/>
	<path class="st0" d="M413.2,286.5c2.8,2.8,7,2.8,9.8,0l12.2-12.2l12.2,12.2c1.5,1.5,2.9,2.1,4.9,2.1s3.4-0.6,4.9-2.1
		c2.8-2.8,2.8-7,0-9.8l-17.1-17.1c-1.4-1.4-3.2-2.1-4.9-2.1s-3.5,0.7-4.9,2.1l-17.1,17.1C410.4,279.5,410.4,283.7,413.2,286.5z"/>
	<path class="st0" d="M412.3,338.6l17.1,17.1c1.8,1.8,3.4,2.5,5.8,2.5s4-0.7,5.8-2.5l17.1-17.1c3.3-3.3,3.3-8.3,0-11.6
		c-3.3-3.3-8.3-3.3-11.6,0l-11.3,11.3L423.9,327c-1.7-1.7-3.7-2.5-5.8-2.5s-4.1,0.8-5.8,2.5C409,330.3,409,335.3,412.3,338.6z"/>
</g>
</svg>
