<svg xmlns="http://www.w3.org/2000/svg" viewBox="0 0 543.72 543.57"><defs><style>.cls-1{fill:#f5771f;}.cls-2,.cls-3{fill:#fff;}.cls-3{font-size:41px;font-family:Futura-Medium, Futura;font-weight:500;}.cls-4{letter-spacing:-0.04em;}.cls-5{letter-spacing:-0.06em;}</style></defs><title>inversion</title><g id="Capa_2" data-name="Capa 2"><g id="Layer_3" data-name="Layer 3"><path class="cls-1" d="M539.89,256.19l-20.34-35.61c-4.11-7.11-7.35-20.05-7.35-28.26V151.19c0-10.08-7.06-21.92-15.79-27l-35.73-20.56c-7.1-4.1-16.63-13.58-20.74-20.69L419.35,47.72c-5-8.72-16.91-15.2-27-15.2H351.24c-8.21,0-21.15-3.83-28.26-7.93L287.36,3.85a33.92,33.92,0,0,0-31.12-.14l-35.62,20.9c-7.11,4.11-20.05,7.91-28.26,7.91H151.24c-10.08,0-21.92,6.48-27,15.2L103.72,83.16c-4.11,7.11-13.58,16.5-20.69,20.6L47.58,124.28c-8.72,5-15.38,16.83-15.38,26.91v41.13c0,8.21-3.64,21.15-7.75,28.26L3.8,256.19c-5,8.73-5.08,22.4,0,31.13l20.71,35.61C28.58,330,32.2,343,32.2,351.19v41.13c0,10.08,6.66,21.91,15.38,26.95l35.54,20.57c7.11,4.1,16.54,13.58,20.64,20.69l20.54,35.52c5,8.73,16.86,15.47,26.94,15.47h41.12c8.21,0,21.15,3.56,28.26,7.67l35.62,20.6a34.08,34.08,0,0,0,31.12,0L323,519.18c7.11-4.1,20-7.66,28.26-7.66h41.13c10.07,0,21.91-6.74,26.95-15.47l20.57-35.57c4.1-7.11,13.57-16.56,20.68-20.66l35.84-20.56c8.73-5,15.79-16.86,15.79-26.94V351.19c0-8.21,3.24-21.15,7.35-28.26L540,287.32C545,278.59,544.93,264.92,539.89,256.19Zm-268.09,232c-119.51,0-216.38-96.88-216.38-216.39S152.29,55.37,271.8,55.37s216.39,96.88,216.39,216.38S391.31,488.14,271.8,488.14Z"/><path class="cls-1" d="M271.8,59.38A212.38,212.38,0,0,0,121.63,421.93,212.38,212.38,0,1,0,422,121.58,211,211,0,0,0,271.8,59.38ZM220.65,410.72a26.28,26.28,0,0,1,23.15,27.64,26.29,26.29,0,0,1-23.15-27.64ZM199.52,401a26.26,26.26,0,0,1,18.54,30.92A26.28,26.28,0,0,1,199.52,401Zm-19.35-12.92a26.27,26.27,0,0,1,13.48,33.44,26.27,26.27,0,0,1-13.48-33.44ZM155.38,136.5a29.68,29.68,0,0,1,20.37-8.29,29.79,29.79,0,0,1-29.51,28.3A29.7,29.7,0,0,1,155.38,136.5Zm-41,90a26.23,26.23,0,0,1,18.42-6.1,26.26,26.26,0,0,1-27.64,23.15A26.21,26.21,0,0,1,114.39,226.46Zm-2.77-8.68a26.29,26.29,0,0,1,30.92-18.55,26.26,26.26,0,0,1-30.92,18.55Zm-2.35,33.87a26.23,26.23,0,0,1,17.23-8.9,26.23,26.23,0,0,1-23.67,27.19A26.19,26.19,0,0,1,109.27,251.65Zm-1.12,25.69a26.17,26.17,0,0,1,15.63-11.48,26.26,26.26,0,0,1-19.13,30.56A26.18,26.18,0,0,1,108.15,277.34Zm2.91,25.55A26.2,26.2,0,0,1,124.7,289.1a26.26,26.26,0,0,1-14.12,33.17A26.18,26.18,0,0,1,111.06,302.89Zm6.87,24.77a26.2,26.2,0,0,1,11.32-15.75,26.28,26.28,0,0,1-8.75,35A26.18,26.18,0,0,1,117.93,327.66Zm10.66,23.4a26.2,26.2,0,0,1,8.71-17.33,26.27,26.27,0,0,1-3.17,35.92A26.2,26.2,0,0,1,128.59,351.06Zm20.09,3a26.28,26.28,0,0,1,2.48,36,26.28,26.28,0,0,1-2.48-36Zm6.6-180.19a26.17,26.17,0,0,1-19.17-3,26.29,26.29,0,0,1,35.14-8.08A26.24,26.24,0,0,1,155.28,173.83Zm7.81,198.46a26.29,26.29,0,0,1,8.08,35.13,26.26,26.26,0,0,1-8.08-35.13ZM128.3,149.91a26.15,26.15,0,0,1,9-17.18,26.3,26.3,0,0,1-3.81,35.86A26.21,26.21,0,0,1,128.3,149.91ZM136.06,180a26.23,26.23,0,0,1,19.4-.1A26.27,26.27,0,0,1,122,193.37,26.23,26.23,0,0,1,136.06,180ZM117.24,155.5a26.27,26.27,0,0,1,1.86,36,26.27,26.27,0,0,1-1.86-36ZM101,181.12a26.28,26.28,0,0,1,7.47,35.27A26.27,26.27,0,0,1,101,181.12ZM88.93,209a26.26,26.26,0,0,1,12.89,33.66A26.26,26.26,0,0,1,88.93,209Zm-7.55,29.39a26.29,26.29,0,0,1,18,31.24,26.29,26.29,0,0,1-18-31.24Zm-2.86,30.21a26.3,26.3,0,0,1,22.67,28,26.27,26.27,0,0,1-22.67-28Zm20.09,37.05A26.26,26.26,0,0,1,107.2,323a26.26,26.26,0,0,1-26.77-24.14A26.16,26.16,0,0,1,98.61,305.63ZM87.05,328.5a26.28,26.28,0,0,1,30.22,19.66A26.27,26.27,0,0,1,87.05,328.5Zm11.17,28.21a26.28,26.28,0,0,1,32.93,14.7,26.27,26.27,0,0,1-32.93-14.7Zm15.45,26.12a26.28,26.28,0,0,1,34.82,9.37,26.28,26.28,0,0,1-34.82-9.37Zm36.52,32.41a26.13,26.13,0,0,1-17.17-9,26.27,26.27,0,0,1,35.85,3.8A26.23,26.23,0,0,1,150.19,415.24Zm5.59,11.05a26.28,26.28,0,0,1,36-1.86,26.28,26.28,0,0,1-36,1.86Zm25.62,16.26a26.3,26.3,0,0,1,35.28-7.46,26.27,26.27,0,0,1-35.28,7.46Zm47.25,12.29a26.11,26.11,0,0,1-19.39-.24,26.28,26.28,0,0,1,33.67-12.89A26.2,26.2,0,0,1,228.65,454.84Zm29.2,4.52a26.16,26.16,0,0,1-19.2,2.79,26.27,26.27,0,0,1,31.24-18A26.22,26.22,0,0,1,257.85,459.36Zm-5.92-25.1A26.17,26.17,0,0,1,243,417a26.27,26.27,0,0,1,27.19,23.67A26.2,26.2,0,0,1,251.93,434.26ZM372.36,162.8a26.29,26.29,0,0,1,35.14,8.08,26.24,26.24,0,0,1-35.14-8.08Zm11.09,228.66a26.19,26.19,0,0,1-11,16,26.26,26.26,0,0,1,8.08-35.13A26.15,26.15,0,0,1,383.45,391.46Zm3.09-19.95A26.2,26.2,0,0,1,394.93,354a26.3,26.3,0,0,1-2.49,36A26.22,26.22,0,0,1,386.54,371.51Zm14.21-19.19a26.21,26.21,0,0,1,5.55-18.59,26.27,26.27,0,0,1,3.17,35.92A26.28,26.28,0,0,1,400.75,352.32Zm11-21.18a26.18,26.18,0,0,1,2.57-19.23,26.28,26.28,0,0,1,8.75,35A26.24,26.24,0,0,1,411.79,331.14Zm7.58-22.65a26.2,26.2,0,0,1-.46-19.39A26.28,26.28,0,0,1,433,322.27,26.2,26.2,0,0,1,419.37,308.49Zm3.95-23.55a26.14,26.14,0,0,1-3.49-19.08A26.28,26.28,0,0,1,439,296.42,26.23,26.23,0,0,1,423.32,284.94Zm.22-23.88a26.19,26.19,0,0,1-6.44-18.31,26.29,26.29,0,0,1,23.68,27.19A26.18,26.18,0,0,1,423.54,261.06ZM420,237.43a26.21,26.21,0,0,1-9.22-17.07,26.3,26.3,0,0,1,27.64,23.15A26.19,26.19,0,0,1,420,237.43Zm-7.17-22.78a26.17,26.17,0,0,1-11.78-15.42A26.28,26.28,0,0,1,432,217.78,26.2,26.2,0,0,1,412.84,214.65Zm-10.65-21.38a26.13,26.13,0,0,1-14-13.38,26.28,26.28,0,0,1,33.44,13.48A26.18,26.18,0,0,1,402.19,193.27Zm4.1-60.54a26.28,26.28,0,0,1,3.8,35.86,26.28,26.28,0,0,1-3.8-35.86Zm-18.06,3.77a29.69,29.69,0,0,1,9.13,20,29.81,29.81,0,0,1-29.51-28.3A29.68,29.68,0,0,1,388.23,136.5ZM350.05,402.11a26.23,26.23,0,0,1,13.38-14A26.27,26.27,0,0,1,350,421.51,26.28,26.28,0,0,1,350.05,402.11Zm-21.38,10.65A26.19,26.19,0,0,1,344.09,401a26.29,26.29,0,0,1-18.55,30.92A26.28,26.28,0,0,1,328.67,412.76Zm-5.71-2a26.29,26.29,0,0,1-23.15,27.64A26.26,26.26,0,0,1,323,410.72Zm-40.69,12.74a26.2,26.2,0,0,1,18.3-6.43,26.29,26.29,0,0,1-27.19,23.67A26.24,26.24,0,0,1,282.27,423.46Zm3.49,35.9a26.28,26.28,0,0,1-12.05-15.2,26.27,26.27,0,0,1,31.24,18A26.13,26.13,0,0,1,285.76,459.36Zm29.2-4.52a26.16,26.16,0,0,1-14.28-13.13,26.28,26.28,0,0,1,33.67,12.89A26.11,26.11,0,0,1,315,454.84Zm28.12-9a26.26,26.26,0,0,1-16.15-10.74,26.28,26.28,0,0,1,35.27,7.46A26.2,26.2,0,0,1,343.08,445.83Zm26.37-13.32a26.18,26.18,0,0,1-17.63-8.08,26.28,26.28,0,0,1,36,1.86A26.14,26.14,0,0,1,369.45,432.51Zm24-17.27A26.2,26.2,0,0,1,374.74,410a26.27,26.27,0,0,1,35.85-3.8A26.15,26.15,0,0,1,393.42,415.24Zm21-20.81a26.22,26.22,0,0,1-19.27-2.23,26.27,26.27,0,0,1,34.81-9.37A26.15,26.15,0,0,1,414.39,394.43Zm17.45-23.83a26.23,26.23,0,0,1-19.38.81,26.28,26.28,0,0,1,32.92-14.7A26.12,26.12,0,0,1,431.84,370.6Zm13.51-26.27a26.22,26.22,0,0,1-19,3.83,26.27,26.27,0,0,1,30.22-19.66A26.2,26.2,0,0,1,445.35,344.33Zm9.24-28.06A26.22,26.22,0,0,1,436.41,323a26.26,26.26,0,0,1,26.77-24.14A26.22,26.22,0,0,1,454.59,316.27Zm4.73-29.16a26.21,26.21,0,0,1-16.9,9.51,26.31,26.31,0,0,1,22.66-28A26.21,26.21,0,0,1,459.32,287.11Zm.11-29.55a26.18,26.18,0,0,1-15.2,12.05,26.27,26.27,0,0,1,18-31.24A26.13,26.13,0,0,1,459.43,257.56ZM454.68,209a26.26,26.26,0,0,1-12.89,33.66A26.26,26.26,0,0,1,454.68,209Zm-12.06-27.86a26.25,26.25,0,0,1-7.46,35.27,26.29,26.29,0,0,1,7.46-35.27Zm-10-7.25a26.12,26.12,0,0,1-8.07,17.63,26.28,26.28,0,0,1,1.85-36A26.18,26.18,0,0,1,432.58,173.87Z"/><polygon class="cls-2" points="230.85 159.66 236.87 156.49 242.89 159.66 241.74 152.95 246.61 148.21 239.88 147.23 236.87 141.12 233.86 147.23 227.12 148.21 231.99 152.95 230.85 159.66"/><polygon class="cls-2" points="264.35 159.66 270.38 156.49 276.4 159.66 275.25 152.95 280.12 148.21 273.39 147.23 270.38 141.12 267.36 147.23 260.63 148.21 265.5 152.95 264.35 159.66"/><polygon class="cls-2" points="297.86 159.66 303.88 156.49 309.91 159.66 308.76 152.95 313.63 148.21 306.9 147.23 303.88 141.12 300.88 147.23 294.14 148.21 299.01 152.95 297.86 159.66"/><text class="cls-3" transform="translate(158.4 254.26)">INVERSIÓN<tspan x="-13.2" y="49.2">ASEGURA</tspan><tspan class="cls-4" x="184.13" y="49.2">D</tspan><tspan x="212.38" y="49.2">A</tspan></text><text class="cls-3" transform="translate(224.44 372.05)"><tspan class="cls-5">1</tspan><tspan x="22.84" y="0">00%</tspan></text></g></g></svg>