<svg xmlns="http://www.w3.org/2000/svg" viewBox="0 0 72.3 72.1"><defs><style>.cls-1{fill:#f5771f;}</style></defs><title>llavero</title><g id="Capa_2" data-name="Capa 2"><g id="Capa_1-2" data-name="Capa 1"><polygon class="cls-1" points="23 11.5 23 10.2 9.2 10.2 9.2 16.1 33.3 16.1 33.3 10.2 28.6 10.2 28.6 11.5 32 11.5 32 14.8 10.4 14.8 10.4 11.5 23 11.5"/><rect class="cls-1" x="14.9" y="19.4" width="12.7" height="1.2"/><polygon class="cls-1" points="42.4 5.7 28.6 5.7 28.6 6.9 41.2 6.9 41.2 29.8 25.3 29.8 25.3 37.02 24.06 39.49 25.3 41.88 25.3 45.02 24.06 47.49 25.3 49.88 25.3 53.02 24.06 55.49 25.3 57.88 25.3 60.91 24.01 62.2 25.3 64.78 25.3 67.81 22.1 70.9 20.7 70.9 20.7 65 19.5 65 19.5 71.24 17.5 67.84 17.5 29.8 1.3 29.8 1.3 6.9 23 6.9 23 5.7 0 5.7 0 31 16.2 31 16.2 68.16 18.58 72.1 22.6 72.1 26.5 68.29 26.5 64.42 25.49 62.4 26.5 61.39 26.5 57.62 25.44 55.51 26.5 53.29 26.5 49.62 25.44 47.51 26.5 45.29 26.5 41.62 25.44 39.51 26.5 37.29 26.5 31 42.4 31 42.4 5.7"/><rect class="cls-1" x="19.5" y="29.8" width="1.2" height="32"/><rect class="cls-1" x="17.3" y="22.9" width="1.2" height="1.2"/><rect class="cls-1" x="20.7" y="22.9" width="1.2" height="1.2"/><rect class="cls-1" x="24" y="22.9" width="1.4" height="1.2"/><path class="cls-1" d="M51,16a18,18,0,0,0-6.64,1.27l.5,1.17A16.53,16.53,0,1,1,34.51,34.3h-1.3A17.8,17.8,0,1,0,51,16Z"/><path class="cls-1" d="M45.7,20.5v5.9H56.1V20.5Zm9.2,4.6H47V21.8h7.9Z"/><path class="cls-1" d="M47.9,1.3a2.46,2.46,0,0,1,2.4,2.4V9.3h1.3V3.7A3.67,3.67,0,0,0,47.9,0H28.1a2.86,2.86,0,0,0-2.86,2.4h1.34A1.6,1.6,0,0,1,28.1,1.3Z"/><rect class="cls-1" x="25.3" y="4.5" width="1.2" height="8.1"/><path class="cls-1" d="M51.1,55A21.22,21.22,0,0,0,72.3,33.8,21.52,21.52,0,0,0,52,12.5l-.47,0V11.1H50.3v1.48l-.48,0a20.08,20.08,0,0,0-5.38,1l.47,1.28a20.76,20.76,0,0,1,6.19-1A19.9,19.9,0,1,1,31.21,34.3h-1.3A21.22,21.22,0,0,0,51.1,55Z"/><path class="cls-1" d="M46.9,36.39v6H45.7v1.2H56.1V42.4H54.89L55,36.52l.77.77.89-.89L50.9,30.61,45.11,36.4l.89.89Zm1.3-1.3,2.7-2.7,2.9,2.9V42.4H48.2Z"/><rect class="cls-1" x="50.2" y="36.4" width="1.2" height="1.2"/></g></g></svg>