<?xml version="1.0" encoding="UTF-8"?>
<svg width="118px" height="162px" viewBox="0 0 118 162" version="1.1" xmlns="http://www.w3.org/2000/svg" xmlns:xlink="http://www.w3.org/1999/xlink">
    <!-- Generator: Sketch 51.3 (57544) - http://www.bohemiancoding.com/sketch -->
    <title>Logo</title>
    <desc>Created with Sketch.</desc>
    <defs></defs>
    <g id="Page-1" stroke="none" stroke-width="1" fill="none" fill-rule="evenodd">
        <g id="Logo">
            <path d="M78,135.792378 C100.09139,135.792378 118,117.883768 118,95.7923779 C118,81.3756696 105.223633,54.7452402 79.6708979,15.9010895 L79.6709144,15.9010787 C79.0638623,14.9782647 77.8236608,14.7222891 76.9008468,15.3293411 C76.6733302,15.4790077 76.4787759,15.673562 76.3291093,15.9010787 C50.7763698,54.7452352 38,81.3756683 38,95.7923779 C38,117.883768 55.90861,135.792378 78,135.792378 Z" id="Oval-Copy-2" fill="#29C5FF"></path>
            <path d="M53.3856483,76.0368193 C67.4057548,76.0368193 78.7712967,64.6712774 78.7712967,50.6511709 C78.7712967,41.6177265 70.8671743,25.0282419 55.0589297,0.882716951 L55.0589327,0.88271495 C54.4538995,-0.041413292 53.2142691,-0.300090895 52.2901409,0.304942352 C52.0598418,0.455720764 51.8631467,0.652415881 51.7123683,0.882714942 C35.9041228,25.028241 28,41.6177263 28,50.6511709 C28,64.6712774 39.3655419,76.0368193 53.3856483,76.0368193 Z" id="Oval-Copy" fill="#FFFF29" opacity="0.95"></path>
            <path d="M42,161.542321 C65.1959595,161.542321 84,142.738281 84,119.542321 C84,104.389033 70.5568935,76.3846464 43.6706806,35.5291614 L43.6706655,35.5291713 C43.0634615,34.6064822 41.8232381,34.3507311 40.9005491,34.9579351 C40.6732626,35.107508 40.4788858,35.3018848 40.3293129,35.5291713 C13.4431043,76.3846509 0,104.389034 0,119.542321 C0,142.738281 18.8040405,161.542321 42,161.542321 Z" id="Oval" fill="#FF29DA" opacity="0.954319"></path>
            <path d="M78,135.792378 C100.09139,135.792378 118,117.883768 118,95.7923779 C118,81.3756696 105.223633,54.7452402 79.6708979,15.9010895 L79.6709144,15.9010787 C79.0638623,14.9782647 77.8236608,14.7222891 76.9008468,15.3293411 C76.6733302,15.4790077 76.4787759,15.673562 76.3291093,15.9010787 C50.7763698,54.7452352 38,81.3756683 38,95.7923779 C38,117.883768 55.90861,135.792378 78,135.792378 Z" id="Oval-Copy-2" fill="#29C5FF" opacity="0.737388393"></path>
        </g>
    </g>
</svg>