<?xml version="1.0" encoding="utf-8"?>
<!-- Generator: Adobe Illustrator 23.0.1, SVG Export Plug-In . SVG Version: 6.00 Build 0)  -->
<svg version="1.1" id="Capa_1" xmlns="http://www.w3.org/2000/svg" xmlns:xlink="http://www.w3.org/1999/xlink" x="0px" y="0px"
	 viewBox="0 0 636.1 636.1" style="enable-background:new 0 0 636.1 636.1;" xml:space="preserve">
<style type="text/css">
	.st0{fill:#F5771F;}
</style>
<g>
	<path class="st0" d="M462.5,371.6c-28.2,0-51.1,22.9-51.1,51.1s22.9,51.1,51.1,51.1s51.1-22.9,51.1-51.1
		C513.5,394.5,490.6,371.6,462.5,371.6z M462.5,446.7c-13.2,0-24-10.8-24-24s10.8-24,24-24s24,10.8,24,24
		C486.5,435.9,475.7,446.7,462.5,446.7z"/>
	<path class="st0" d="M113.3,371.6c-28.1,0-51,22.9-51,51.1s22.9,51.1,51,51.1c28.2,0,51.1-22.9,51.1-51.1S141.4,371.6,113.3,371.6z
		 M130.3,439.6c-4.5,4.5-10.6,7-17,7c-13.2,0-24-10.8-24-24s10.8-24,24-24s24,10.8,24,24C137.3,429.1,134.8,435.1,130.3,439.6z"/>
	<path class="st0" d="M625.5,17.3c-5.5-5.2-12.9-8.1-20.7-8.1H379.1c-16.1,0-29.3,12.3-29.3,27.5v213.1c0,15.2,13.1,27.5,29.3,27.5
		h225.7c16.1,0,29.3-12.4,29.3-27.5V36.7C634.1,29.4,631,22.5,625.5,17.3z M606.4,228.9L606.4,228.9c-1.2,12.9-12.6,23.1-26.5,23.1
		h-177c-14.6,0-26.5-11.2-26.5-25.1V60.6c0-13.8,11.9-25.1,26.5-25.1h176.9c14.6,0,26.5,11.2,26.5,25.1v168.3H606.4z"/>
	<path class="st0" d="M486.6,166.3c20.7,0,37.4-5.4,48.2-15.5c8.7-8.2,13.4-20.6,13.4-34.8c0-13.7-5.7-26-15.6-33.9
		c-9.9-7.9-24.8-11.8-45.3-11.8c-17.8,0-32.8,1-44.8,2.9v146.6h30.9v-54.3l1.7,0.2C478.1,166.1,482.1,166.3,486.6,166.3z
		 M473.4,141.9v-47l1.1-0.3c1.5-0.4,6-1.4,14.5-1.4c17.7,0,28.3,8.9,28.3,23.7c0,16.2-11.9,26.2-30.9,26.2c-5.4,0-8.9-0.3-11.8-0.9
		L473.4,141.9z"/>
	<path class="st0" d="M453.1,626.8h48c6.3,0,11.5-6.7,11.5-15v-78.2h32.3c15.5,0,28.1-14.5,28.1-32.2V343.8
		c0-17.8-12.6-32.2-28.1-32.2h-488l102.3-176.7c0.5-0.9,5.1-8.1,22.3-8.1h104.2c0.1,0,12.8,0.8,18.7-5.1c2.2-2.1,3.1-4.8,2.9-8.3
		c-0.9-8.9-5.9-13.4-14.7-13.4H154.3c-0.5,0.1-5.9,1.1-12,11.6C136.3,122,47,276.6,27.2,311l-0.5,0.8l-0.9,0.2
		C12,314.5,2,327.9,2,343.8v157.6c0,17.8,12.6,32.2,28.1,32.2h32.1v77.6c0,8.2,5.2,14.9,11.6,14.9h48.6c6.3,0,11.6-6.8,11.6-14.9
		v-77.6h307.5v78.2C441.6,620.1,446.8,626.8,453.1,626.8z M59.5,507.6c-15.9,0-28.8-12-28.8-26.8V366.6c0-14.8,12.9-26.8,28.8-26.8
		h458.4c15.9,0,28.8,12,28.8,26.8v114.2l0,0c0,14.8-12.9,26.8-28.8,26.8L59.5,507.6L59.5,507.6z"/>
</g>
</svg>
