<svg xmlns="http://www.w3.org/2000/svg" viewBox="0 0 439 430"><defs><style>.cls-1{fill:#f5771f;}.cls-2{fill:#fff;}</style></defs><title>Recurso 1</title><g id="Capa_2" data-name="Capa 2"><g id="Capa_2-2" data-name="Capa 2"><rect class="cls-1" width="439" height="430"/><path class="cls-2" d="M26.32,208.78l33.46-2.1q1.09,8.16,4.43,12.42Q69.64,226,79.74,226q7.53,0,11.61-3.53a10.58,10.58,0,0,0,4.07-8.19,10.44,10.44,0,0,0-3.88-7.92q-3.89-3.5-18-6.6-23.14-5.21-33-13.82a27.79,27.79,0,0,1-9.94-22,29.86,29.86,0,0,1,5.09-16.58q5.09-7.8,15.29-12.27t28-4.46q21.83,0,33.27,8.11t13.63,25.82l-33.15,1.94q-1.32-7.69-5.56-11.18t-11.68-3.5q-6.14,0-9.24,2.6a8,8,0,0,0-3.11,6.33,6.33,6.33,0,0,0,2.57,4.89c1.65,1.51,5.59,2.9,11.8,4.2q23.06,5,33,10.05T125,192.55a32,32,0,0,1,4.55,16.85,36.08,36.08,0,0,1-6.06,20.19,37.87,37.87,0,0,1-16.93,14q-10.86,4.77-27.4,4.78-29,0-40.22-11.18T26.32,208.78Z"/><path class="cls-2" d="M221.36,132.61h35.1v67.81a57,57,0,0,1-3.15,19.05,41.06,41.06,0,0,1-9.86,15.68,39.27,39.27,0,0,1-14.09,9.42q-10.25,3.81-24.61,3.81a154.08,154.08,0,0,1-18.13-1.17,47.27,47.27,0,0,1-16.42-4.62,41.13,41.13,0,0,1-12.08-9.81,35.93,35.93,0,0,1-7.49-13.11,68.18,68.18,0,0,1-3.26-19.25V132.61h35.09V202q0,9.32,5.17,14.54T202,221.82q9.09,0,14.25-5.16T221.36,202Z"/><path class="cls-2" d="M279.36,132.61h46.26l17.84,69.26,17.71-69.26H407.4V246.43H378.59v-86.8l-22.19,86.8H330.32l-22.15-86.8v86.8H279.36Z"/><path class="cls-2" d="M25.53,303.71l6.31-.4a4.87,4.87,0,0,0,.83,2.35A3.51,3.51,0,0,0,35.6,307a3.21,3.21,0,0,0,2.19-.67,1.92,1.92,0,0,0,0-3,8.64,8.64,0,0,0-3.4-1.24,14.29,14.29,0,0,1-6.22-2.61,5.23,5.23,0,0,1-1.88-4.14,5.62,5.62,0,0,1,1-3.13,6.34,6.34,0,0,1,2.89-2.31,13.27,13.27,0,0,1,5.28-.85,10.79,10.79,0,0,1,6.27,1.53,6.61,6.61,0,0,1,2.57,4.87l-6.25.37a3.39,3.39,0,0,0-1-2.11,3.34,3.34,0,0,0-2.2-.66,2.74,2.74,0,0,0-1.75.49,1.51,1.51,0,0,0-.58,1.2,1.19,1.19,0,0,0,.48.92,5.44,5.44,0,0,0,2.23.79,28,28,0,0,1,6.23,1.9,6.5,6.5,0,0,1,2.74,2.38,6,6,0,0,1,.86,3.18,6.8,6.8,0,0,1-1.14,3.8,7.15,7.15,0,0,1-3.2,2.65,12.92,12.92,0,0,1-5.17.9q-5.47,0-7.59-2.11A8.32,8.32,0,0,1,25.53,303.71Z"/><path class="cls-2" d="M53.39,300.3l-5.7-.6a6.32,6.32,0,0,1,.93-2.36,5.09,5.09,0,0,1,1.75-1.48,7.27,7.27,0,0,1,2.25-.71,19,19,0,0,1,3.11-.24,24.77,24.77,0,0,1,4.31.3,5.53,5.53,0,0,1,2.71,1.25,4.42,4.42,0,0,1,1.2,1.87,6.77,6.77,0,0,1,.44,2.3v6.87a7.72,7.72,0,0,0,.14,1.72,7.42,7.42,0,0,0,.6,1.59H59.54a5.39,5.39,0,0,1-.44-.91,6.66,6.66,0,0,1-.21-1,7.68,7.68,0,0,1-2.32,1.61,9.71,9.71,0,0,1-3.68.65,6.15,6.15,0,0,1-4.23-1.29,4.1,4.1,0,0,1-1.44-3.18,4.19,4.19,0,0,1,1-2.92,7,7,0,0,1,3.84-1.7c2.23-.45,3.68-.76,4.35-.94a21,21,0,0,0,2.11-.71,2.07,2.07,0,0,0-.46-1.54,2.27,2.27,0,0,0-1.59-.44,4.16,4.16,0,0,0-2.2.47A2.52,2.52,0,0,0,53.39,300.3Zm5.17,3.13c-.82.29-1.68.55-2.57.78a6,6,0,0,0-2.3,1,1.49,1.49,0,0,0-.49,1.1,1.48,1.48,0,0,0,.49,1.15,2.05,2.05,0,0,0,1.44.44,3.73,3.73,0,0,0,1.85-.48,2.9,2.9,0,0,0,1.22-1.18,3.94,3.94,0,0,0,.36-1.81Z"/><path class="cls-2" d="M68.17,289.34h6v21.47h-6Z"/><path class="cls-2" d="M77.22,303.08a7.8,7.8,0,0,1,2.4-5.87,9,9,0,0,1,6.49-2.3q4.68,0,7.06,2.71a8.46,8.46,0,0,1-.46,11.25,9.09,9.09,0,0,1-6.58,2.3,9.25,9.25,0,0,1-6.07-1.91A7.65,7.65,0,0,1,77.22,303.08Zm6,0a4.7,4.7,0,0,0,.84,3.08,2.75,2.75,0,0,0,4.23,0A4.89,4.89,0,0,0,89.1,303a4.56,4.56,0,0,0-.84-3,2.58,2.58,0,0,0-2.06-1,2.68,2.68,0,0,0-2.15,1A4.63,4.63,0,0,0,83.2,303.06Z"/><path class="cls-2" d="M98,295.26h5.55v2.53a8.41,8.41,0,0,1,2.52-2.22,6.71,6.71,0,0,1,3.11-.66,5.08,5.08,0,0,1,3.87,1.47,6.37,6.37,0,0,1,1.4,4.55v9.88h-6v-8.55a3.1,3.1,0,0,0-.54-2.07,1.92,1.92,0,0,0-1.52-.61,2.15,2.15,0,0,0-1.76.82,4.77,4.77,0,0,0-.68,2.94v7.47H98Z"/><path class="cls-2" d="M144.35,289.34v21.47h-5.58v-2.3a7.36,7.36,0,0,1-2.14,2,6.08,6.08,0,0,1-2.87.68,5.53,5.53,0,0,1-4.85-2.42,10,10,0,0,1-1.68-5.88,8.54,8.54,0,0,1,1.85-5.91,6.07,6.07,0,0,1,4.71-2,6.63,6.63,0,0,1,2.53.46,5.82,5.82,0,0,1,2,1.41v-7.44Zm-6,13.65a4.08,4.08,0,0,0-.78-2.73,2.48,2.48,0,0,0-2-.9,2.18,2.18,0,0,0-1.75.86,4.73,4.73,0,0,0-.7,2.9,4.33,4.33,0,0,0,.73,2.79,2.23,2.23,0,0,0,1.79.89,2.43,2.43,0,0,0,1.91-.89A4.54,4.54,0,0,0,138.38,303Z"/><path class="cls-2" d="M165.26,304.51h-12a3.88,3.88,0,0,0,.78,2.14,2.82,2.82,0,0,0,2.26,1,3.34,3.34,0,0,0,1.67-.44,4,4,0,0,0,1-1l5.87.55a8.43,8.43,0,0,1-3.25,3.36,11.8,11.8,0,0,1-5.47,1,11.17,11.17,0,0,1-4.86-.88,7.14,7.14,0,0,1-2.94-2.77,8.39,8.39,0,0,1-1.16-4.46,7.83,7.83,0,0,1,2.34-5.9,8.89,8.89,0,0,1,6.45-2.25,11.41,11.41,0,0,1,5.27,1,6.84,6.84,0,0,1,2.95,2.93,10.71,10.71,0,0,1,1,5Zm-6.07-2.85a3.93,3.93,0,0,0-.93-2.48,2.93,2.93,0,0,0-4.25.38,4.18,4.18,0,0,0-.69,2.1Z"/><path class="cls-2" d="M192.37,289.34H199v12.79a11,11,0,0,1-.59,3.6,7.87,7.87,0,0,1-1.86,2.95,7.36,7.36,0,0,1-2.66,1.78,13.34,13.34,0,0,1-4.64.72,28.32,28.32,0,0,1-3.42-.22,9.11,9.11,0,0,1-3.1-.87,7.72,7.72,0,0,1-2.28-1.85,6.72,6.72,0,0,1-1.41-2.48,12.78,12.78,0,0,1-.62-3.63V289.34H185v13.1a3.73,3.73,0,0,0,1,2.74,4.2,4.2,0,0,0,5.39,0,3.73,3.73,0,0,0,1-2.76Z"/><path class="cls-2" d="M201.94,306.49l5.91-.55a2.93,2.93,0,0,0,1,1.5,3.62,3.62,0,0,0,3.62-.05,1.15,1.15,0,0,0,.51-.95,1.09,1.09,0,0,0-.67-1,12.73,12.73,0,0,0-2.57-.61,26.2,26.2,0,0,1-4.31-1,4.52,4.52,0,0,1-2-1.55,4.31,4.31,0,0,1,.07-5.15,5.29,5.29,0,0,1,2.46-1.67,13.3,13.3,0,0,1,4.2-.54,14.68,14.68,0,0,1,4.11.42,5.33,5.33,0,0,1,2.22,1.32,6.82,6.82,0,0,1,1.47,2.42l-5.66.55a1.92,1.92,0,0,0-.73-1.1,3,3,0,0,0-1.7-.47,2.41,2.41,0,0,0-1.47.36,1.06,1.06,0,0,0-.46.87.94.94,0,0,0,.58.87,9.5,9.5,0,0,0,2.55.52,17.81,17.81,0,0,1,4.43.94,5,5,0,0,1,2.22,1.71,4.23,4.23,0,0,1,.76,2.45,4.79,4.79,0,0,1-.81,2.61,5.45,5.45,0,0,1-2.56,2,12.38,12.38,0,0,1-4.77.76c-2.84,0-4.87-.41-6.07-1.22A5.43,5.43,0,0,1,201.94,306.49Z"/><path class="cls-2" d="M220.58,303.08a7.77,7.77,0,0,1,2.41-5.87,9,9,0,0,1,6.49-2.3q4.67,0,7.06,2.71a8.46,8.46,0,0,1-.46,11.25,9.12,9.12,0,0,1-6.59,2.3,9.22,9.22,0,0,1-6.06-1.91A7.63,7.63,0,0,1,220.58,303.08Zm6,0a4.7,4.7,0,0,0,.84,3.08,2.76,2.76,0,0,0,4.24,0,4.89,4.89,0,0,0,.82-3.15,4.56,4.56,0,0,0-.83-3,2.61,2.61,0,0,0-2.07-1,2.69,2.69,0,0,0-2.15,1A4.63,4.63,0,0,0,226.56,303.06Z"/><path class="cls-2" d="M240.27,306.49l5.92-.55a2.92,2.92,0,0,0,1,1.5,3.62,3.62,0,0,0,3.62-.05,1.16,1.16,0,0,0,.52-.95,1.1,1.1,0,0,0-.68-1,12.37,12.37,0,0,0-2.56-.61,26.39,26.39,0,0,1-4.32-1,4.5,4.5,0,0,1-2-1.55,4.29,4.29,0,0,1,.06-5.15,5.33,5.33,0,0,1,2.47-1.67,13.22,13.22,0,0,1,4.2-.54,14.77,14.77,0,0,1,4.11.42,5.29,5.29,0,0,1,2.21,1.32,6.82,6.82,0,0,1,1.47,2.42l-5.65.55a2,2,0,0,0-.73-1.1,3,3,0,0,0-1.7-.47,2.42,2.42,0,0,0-1.48.36,1.09,1.09,0,0,0-.46.87,1,1,0,0,0,.59.87,9.5,9.5,0,0,0,2.55.52,17.71,17.71,0,0,1,4.42.94,4.85,4.85,0,0,1,2.22,1.71,4.24,4.24,0,0,1,.77,2.45,4.79,4.79,0,0,1-.81,2.61,5.53,5.53,0,0,1-2.57,2,12.29,12.29,0,0,1-4.76.76c-2.85,0-4.87-.41-6.08-1.22A5.47,5.47,0,0,1,240.27,306.49Z"/><path class="cls-2" d="M270,289.34h8.73l3.36,13.07,3.34-13.07h8.72v21.47H288.7V294.44l-4.19,16.37h-4.92l-4.18-16.37v16.37H270Z"/><path class="cls-2" d="M314.36,310.81H308.8v-2.52a8.23,8.23,0,0,1-2.51,2.22,6.73,6.73,0,0,1-3.12.66,5.08,5.08,0,0,1-3.86-1.48,6.38,6.38,0,0,1-1.4-4.53v-9.9h6v8.55a3.09,3.09,0,0,0,.55,2.08,1.92,1.92,0,0,0,1.52.62,2.19,2.19,0,0,0,1.75-.82,4.78,4.78,0,0,0,.68-2.95v-7.48h6Z"/><path class="cls-2" d="M318.19,289.34h6v21.47h-6Z"/><path class="cls-2" d="M335.16,289.34v5.92h3.29v4.36h-3.29v5.51a3.06,3.06,0,0,0,.19,1.32,1.11,1.11,0,0,0,1,.5,6.75,6.75,0,0,0,1.85-.38l.44,4.11a19.71,19.71,0,0,1-4.14.49,7.2,7.2,0,0,1-3.28-.58,3.48,3.48,0,0,1-1.56-1.73,10.38,10.38,0,0,1-.5-3.77v-5.47H327v-4.36h2.2V292.4Z"/><path class="cls-2" d="M341.51,289.34h6v4.06h-6Zm0,5.92h6v15.55h-6Z"/><path class="cls-2" d="M351.31,316.73V295.26h5.58v2.3a7.57,7.57,0,0,1,2.12-2,6.07,6.07,0,0,1,2.89-.68,5.56,5.56,0,0,1,4.82,2.38,9.88,9.88,0,0,1,1.71,5.91,8.51,8.51,0,0,1-1.86,5.92,6.1,6.1,0,0,1-4.7,2.05,6.53,6.53,0,0,1-2.51-.47,6,6,0,0,1-2-1.4v7.43Zm6-13.65a4.09,4.09,0,0,0,.78,2.74,2.5,2.5,0,0,0,2,.89,2.15,2.15,0,0,0,1.75-.86,4.69,4.69,0,0,0,.7-2.9,4.38,4.38,0,0,0-.73-2.78,2.25,2.25,0,0,0-1.79-.88,2.4,2.4,0,0,0-1.91.89A4.48,4.48,0,0,0,357.28,303.08Z"/><path class="cls-2" d="M371.49,289.34h6v21.47h-6Z"/><path class="cls-2" d="M398.55,304.51h-12a3.88,3.88,0,0,0,.78,2.14,2.82,2.82,0,0,0,2.26,1,3.34,3.34,0,0,0,1.67-.44,3.83,3.83,0,0,0,1-1l5.87.55a8.43,8.43,0,0,1-3.25,3.36,11.79,11.79,0,0,1-5.46,1,11.19,11.19,0,0,1-4.87-.88,7.14,7.14,0,0,1-2.94-2.77,8.39,8.39,0,0,1-1.16-4.46,7.83,7.83,0,0,1,2.34-5.9,8.9,8.9,0,0,1,6.45-2.25,11.38,11.38,0,0,1,5.27,1,6.84,6.84,0,0,1,3,2.93,10.71,10.71,0,0,1,1,5Zm-6.07-2.85a3.93,3.93,0,0,0-.93-2.48,2.93,2.93,0,0,0-4.25.38,4.18,4.18,0,0,0-.69,2.1Z"/><path class="cls-2" d="M400.23,306.49l5.92-.55a2.87,2.87,0,0,0,1,1.5,3.6,3.6,0,0,0,3.61-.05,1.14,1.14,0,0,0,.52-.95,1.1,1.1,0,0,0-.68-1,12.37,12.37,0,0,0-2.56-.61,26.39,26.39,0,0,1-4.32-1,4.5,4.5,0,0,1-2-1.55,4.27,4.27,0,0,1,.07-5.15,5.24,5.24,0,0,1,2.46-1.67,13.22,13.22,0,0,1,4.2-.54,14.72,14.72,0,0,1,4.11.42,5.29,5.29,0,0,1,2.21,1.32,6.82,6.82,0,0,1,1.47,2.42l-5.65.55a2,2,0,0,0-.73-1.1,3,3,0,0,0-1.7-.47,2.42,2.42,0,0,0-1.48.36,1.09,1.09,0,0,0-.46.87,1,1,0,0,0,.59.87,9.5,9.5,0,0,0,2.55.52,17.6,17.6,0,0,1,4.42.94,4.85,4.85,0,0,1,2.22,1.71,4.24,4.24,0,0,1,.77,2.45,4.79,4.79,0,0,1-.81,2.61,5.48,5.48,0,0,1-2.57,2,12.29,12.29,0,0,1-4.76.76c-2.85,0-4.87-.41-6.08-1.22A5.47,5.47,0,0,1,400.23,306.49Z"/></g></g></svg>