<?xml version="1.0" encoding="utf-8"?>
<!-- Generator: Adobe Illustrator 23.0.1, SVG Export Plug-In . SVG Version: 6.00 Build 0)  -->
<svg version="1.1" id="Capa_1" xmlns="http://www.w3.org/2000/svg" xmlns:xlink="http://www.w3.org/1999/xlink" x="0px" y="0px"
	 viewBox="0 0 636.5 636.5" style="enable-background:new 0 0 636.5 636.5;" xml:space="preserve">
<style type="text/css">
	.st0{fill:#F5771F;}
</style>
<g>
	<path class="st0" d="M387.1,58.9c7.6-5.8,15.8-4,16.8-3.7c16.9,1.8,20.8,24.8,21.7,38.4c0.7,7,5.1,7.9,5.7,8h12.6
		c3.2,0,4.9-1.9,4.9-5.5c-0.1-0.5-0.1-1-0.2-1.5c0-0.5-0.1-1-0.2-1.6v-0.3c-1.8-15.3-3.8-26.1-5.8-31.9c-1.5-3.8-3.6-7.5-6.1-10.7
		c-0.5-0.7-1-1.3-1.5-2c-0.2-0.1-0.3-0.4-0.5-0.6c-0.4-0.4-0.7-0.8-1.1-1.1l-0.1-0.1c-1.4-1.4-2.7-2.5-3.9-3.5
		c-1.4-1.2-2.9-2.2-4.3-3.2l-0.4-0.3c-2.7-1.6-5.4-2.9-8.4-3.9c-4.4-1.6-8.3-2.3-11.2-2.8h-0.2l-0.7-0.1c-1.5-0.1-3-0.3-4.6-0.3
		h-1.1c-27.3,0-49.6,22.2-49.6,49.6v72.1h-135V98.8c0-0.3,0.1-0.7,0.1-0.9c0-0.2,0.1-0.4,0.1-0.6v-2c0-17.9,4.1-30.2,12.1-36.3
		c7.6-5.8,15.9-4,16.9-3.8c16.8,1.8,20.8,24.8,21.7,38.4c0.7,7,5.1,7.9,5.7,8H283c3.2,0,4.9-1.9,4.9-5.5c-0.1-0.6-0.1-1.1-0.2-1.6
		c0-0.5-0.1-1-0.1-1.5v-0.3c-0.7-5.8-2.9-23.3-5.9-31.9c-1.5-3.9-3.7-7.6-6.1-10.7c-0.3-0.4-0.5-0.7-0.8-1.1
		c-0.2-0.3-0.5-0.6-0.7-0.9c-0.2-0.2-0.4-0.4-0.6-0.7c-0.4-0.4-0.7-0.8-1.1-1l-0.1-0.1c-1.3-1.3-2.6-2.4-3.9-3.5
		c-1.4-1.2-2.8-2.2-4.3-3.2l-0.4-0.3c-2.7-1.6-5.4-2.9-8.5-4c-4.4-1.6-8.2-2.3-11.3-2.8h-0.1l-0.7-0.1c-1.5-0.1-3-0.3-4.6-0.3h-1.2
		c-27.3,0-49.6,22.2-49.6,49.6v256.1c9.3,0,17.9-0.7,26.1-2.2v-12.4h35.6c12.1-6.3,23.9-14.7,36.2-25.5c3.2-2.8,6.1-5.2,9-7.6h-80.8
		v-34.4h134.3c10.3-4.2,19.2-6.5,26.6-8.1V98.8c0-0.3,0.1-0.6,0.1-0.9c0-0.2,0.1-0.4,0.1-0.6v-2C375,77.2,379.1,65,387.1,58.9z
		 M348.6,222.7H213.9V187h134.7L348.6,222.7L348.6,222.7z"/>
	<path class="st0" d="M561,348.8c3.2-3.8,4.5-7.4,4.1-11.1c-1-8.6-11.4-16.7-23.4-26c-1.7-1.3-3.5-2.7-5.3-4.1
		c-34.6-24-68.6-30.9-91.1-32.4c-24.3-1.6-40.7,2.5-40.9,2.5l0,0c-1.3,0.3-2.6,0.5-3.9,0.8c-24,4.8-48.9,9.8-95.7,51.1
		c-49.9,44-87.6,41.9-124,39.8c-35.5-2-72.6-31.7-82.8-41.9c-3.5-3.5-8.1-4-11.4-3.7c-6,0.5-11.1,3.6-12.9,6.2
		c-3.2,4.6-3.7,13,2.5,21.4c29,25,57.6,46,112.1,50.8c49.1,4.3,101.1-14.3,138.8-49.8c32.7-30.7,50.1-38.2,76.9-43.5
		c64.3-9.5,101.4,15.7,121.4,29.2l0.2,0.1c22.3,22.8,28.3,17.2,35.3,10.7L561,348.8z"/>
	<path class="st0" d="M33.7,602.3h569c16.9,0,30.7-13.8,30.7-30.7V119.7h-36.6v411.6h-0.2c-1.5,16.4-15.3,29.2-32.1,29.2H71.8
		c-17.8,0-32.2-14.5-32.2-32.2V119.7H3v451.9C3,588.5,16.8,602.3,33.7,602.3z"/>
</g>
</svg>
