<?xml version="1.0" encoding="utf-8"?>
<!-- Generator: Adobe Illustrator 23.0.1, SVG Export Plug-In . SVG Version: 6.00 Build 0)  -->
<svg version="1.1" id="Layer_1" xmlns="http://www.w3.org/2000/svg" xmlns:xlink="http://www.w3.org/1999/xlink" x="0px" y="0px"
	 viewBox="0 0 512 512" style="enable-background:new 0 0 512 512;" xml:space="preserve">
<style type="text/css">
	.st0{fill:#F5771F;}
</style>
<g>
	<path class="st0" d="M504.9,348.7c0-25.8-10-48.9-29.1-66.8c-17.2-16.2-41.2-27.2-67.6-31c-8.1-1.2-17.1-2.5-26.8-3.9
		c-46.2-6.7-109.5-15.9-163.9-22.5l-0.5-0.1l-28.7-61h46.6c5.1,0,9.2-4.1,9.2-9.2c0-24.8-20.1-44.9-44.9-44.9h-78.8
		c-5.1,0-9.2,4.1-9.2,9.2c0,24.8,20.1,44.9,44.9,44.9H168l27.6,58.5l-1.8-0.2c-21.6-2.4-39.8-4.1-54-5c-33-2.1-64.9,9.7-89.9,33.1
		c-27.1,25.5-42.7,61.5-42.7,98.9s15.6,73.4,42.7,98.9c5.1,4.8,10.6,9.2,16.3,13l1,0.7l-34.2,34c-1.7,1.7-2.7,4-2.7,6.5
		s1,4.8,2.7,6.5s4,2.7,6.5,2.7s4.8-1,6.5-2.7l37.8-37.8l0.6,0.3c15.2,6.7,31.2,10.2,47.7,10.2c2.5,0,5-0.1,7.5-0.2
		c54-3.4,150.2-17.2,220.4-27.3c10.3-1.5,20.2-2.9,29.4-4.2l0.5-0.1l59.2,59.2c1.7,1.7,4,2.7,6.5,2.7s4.8-1,6.5-2.7
		c3.6-3.6,3.6-9.4,0-13l-49.5-49.5l1.9-0.3c23.8-4.4,45.6-15,61.3-29.9C494.9,397.6,504.9,374.5,504.9,348.7z M156.1,145
		c-10.5,0-20.1-6.2-24.3-15.9l-0.6-1.4h68c10.5,0,20.1,6.2,24.3,15.9l0.6,1.4H156.1z M405.7,428.3c-13.8,1.9-31.3,4.4-48.2,6.9
		c-69.9,10-165.7,23.8-219,27.2c-2.1,0.1-4.2,0.2-6.3,0.2c-25.6,0-50.2-10-69.9-28.4c-23.5-22-36.9-53.2-36.9-85.5
		s13.5-63.5,36.9-85.5c19.5-18.3,44.3-28.4,69.9-28.4c2.1,0,4.2,0.1,6.3,0.2c59,3.7,168.1,19.6,240.3,30.1
		c9.7,1.4,18.7,2.7,26.8,3.9c40.2,5.8,80.9,32.7,80.9,79.6C486.5,395.9,446,422.7,405.7,428.3z"/>
	<path class="st0" d="M141.8,266.9c-45.1,0-81.7,36.7-81.7,81.7s36.7,81.7,81.7,81.7c45.1,0,81.7-36.7,81.7-81.7
		S186.9,266.9,141.8,266.9z M141.8,412c-34.9,0-63.3-28.4-63.3-63.3s28.4-63.3,63.3-63.3s63.3,28.4,63.3,63.3S176.7,412,141.8,412z"
		/>
	<path class="st0" d="M411,217.7c-1.3,2.1-1.6,4.6-1,7l1.6,6.1c1,4.1,4.7,6.9,8.9,6.9c0.8,0,1.5-0.1,2.3-0.3
		c4.9-1.3,7.9-6.3,6.6-11.2l0,0l-1.6-6.1c-1.1-4.2-4.8-6.9-8.9-6.9c-0.8,0-1.5,0.1-2.3,0.3C414.3,214,412.3,215.5,411,217.7z"/>
	<path class="st0" d="M470,66.5c2.9-6.1,3.2-13.3,0.8-19.7L460,17.6c-4.9-13.1-19.5-19.9-32.7-15C420.9,5,415.9,9.7,413,15.8
		s-3.1,13.1-0.7,19.5l1.8,4.9l-46.9,16.4C354,61.1,347,75.7,351.6,88.9c3.6,10.2,13.2,17.1,24,17.1c0.9,0,1.9-0.1,3.1-0.2l0.9-0.1
		l22.6,88.4c1,4.1,4.7,6.9,8.9,6.9c0.8,0,1.5-0.1,2.3-0.3c4.9-1.3,7.9-6.3,6.6-11.2L397.1,100l58.3-20.3
		C461.8,77.4,467.2,72.6,470,66.5z M453.4,58.7c-0.8,1.7-2.3,3-4,3.6L378,87.2c-0.8,0.3-1.5,0.4-2.3,0.4c-3,0-5.7-1.9-6.6-4.7
		c-0.6-1.8-0.5-3.7,0.3-5.4s2.2-3,4-3.6l55.8-19.4c2.3-0.8,4.2-2.5,5.3-4.8c1-2.2,1.2-4.8,0.3-7.1l-5.1-13.7
		c-0.7-1.8-0.6-3.7,0.2-5.4c0.8-1.7,2.2-3,3.9-3.7c0.8-0.3,1.6-0.4,2.4-0.4c2.9,0,5.6,1.8,6.6,4.6l10.8,29.2
		C454.3,55,454.2,57,453.4,58.7z"/>
	<path class="st0" d="M397.2,372.8h-22.7L329,327.3c-3.6-3.6-9.4-3.6-13,0c-1.7,1.7-2.7,4-2.7,6.5s1,4.8,2.7,6.5l32.5,32.5h-4.3
		c-5.1,0-9.2,4.1-9.2,9.2s4.1,9.2,9.2,9.2h53c5.1,0,9.2-4.1,9.2-9.2S402.3,372.8,397.2,372.8z"/>
</g>
</svg>
