<?xml version="1.0" encoding="utf-8"?>
<!-- Generator: Adobe Illustrator 23.0.1, SVG Export Plug-In . SVG Version: 6.00 Build 0)  -->
<svg version="1.1" id="Capa_1" xmlns="http://www.w3.org/2000/svg" xmlns:xlink="http://www.w3.org/1999/xlink" x="0px" y="0px"
	 viewBox="0 0 637.3 637.3" style="enable-background:new 0 0 637.3 637.3;" xml:space="preserve">
<style type="text/css">
	.st0{fill:#F5771F;}
</style>
<g>
	<path class="st0" d="M551.3,1H86c-9.1,0-16.4,7.6-16.4,17v131h498.2V18C567.8,8.6,560.4,1,551.3,1z M534.9,118.1H100.5V42.8
		c0-6.1,7.2-11.1,16.1-11.1h402.2c8.9,0,16.1,5,16.1,11.1L534.9,118.1L534.9,118.1z"/>
	<path class="st0" d="M86,636.3h465.3c9.1,0,16.4-7,16.4-15.7V183.1H69.6v437.6C69.6,629.3,76.9,636.3,86,636.3z M100.9,214.7h435.4
		v370.1c0,8.3-7.2,15-16.1,15H117c-8.9,0-16.1-6.7-16.1-15V214.7z"/>
	<path class="st0" d="M318,264.6c-77.2,0-140,62.8-140,140s62.8,140,140,140s140-62.8,140-140S395.2,264.6,318,264.6z M437.4,407.9
		l-0.2,2c-3,29.4-16.7,56.6-38.7,76.6c-22.1,20.1-50.8,31.2-80.7,31.2c-60.4,0-111.6-45.1-119.1-104.8l-0.5-3.9l2.3,3.1
		c0.1,0.2,14,19,34.3,20.1c12.8,0.7,25.4-5.6,37.6-18.8l1-1.1l0.6,1.3c7.3,14.9,22.3,24.6,39.4,25.4c18.7,0.9,35.7-8.9,46.8-26.9
		l0.8-1.3l0.9,1.2c20.2,27.6,73.3-2.9,73.9-3.2L437.4,407.9z"/>
	<path class="st0" d="M160.6,51c-13.2,0-24,10.8-24,24s10.8,24,24,24s24-10.8,24-24S173.8,51,160.6,51z"/>
	<path class="st0" d="M243.2,51c-13.2,0-24,10.8-24,24s10.8,24,24,24s24-10.8,24-24S256.4,51,243.2,51z"/>
</g>
</svg>
